<svg width="124" height="124" viewBox="0 0 124 124" fill="none" xmlns="http://www.w3.org/2000/svg">
<g filter="url(#filter0_d_1_929)">
<circle cx="62" cy="62" r="50" fill="white"/>
</g>
<path d="M61.5 30L89.6458 46.25V78.75L61.5 95L33.3542 78.75V46.25L61.5 30Z" fill="url(#paint0_linear_1_929)"/>
<path d="M50.8711 68.576H56.8308V72.3113L50.8711 73.2509V68.576Z" fill="url(#paint1_linear_1_929)"/>
<path d="M61.5704 74.8499V78.9803L60.8765 78.6084L58.5291 77.3517V77.35L57.9481 77.0396L50.8711 73.2513L56.8308 72.3116L58.5291 73.2214L60.8765 74.4781L61.5704 74.8499Z" fill="url(#paint2_linear_1_929)"/>
<path d="M72.2694 67.5239H66.0474V73.2513H72.2694V67.5239Z" fill="url(#paint3_linear_1_929)"/>
<path d="M72.2713 73.2504L64.7527 77.2762L63.6621 77.8605L62.4054 78.5312L61.5703 78.9794L60.8764 78.6076L58.529 77.3492L57.948 77.0388L58.529 76.6885L60.8764 75.2691L61.5703 74.8491L62.4054 74.3444L64.7527 72.9267L66.036 72.1498H66.0476L72.2713 73.2504Z" fill="url(#paint4_linear_1_929)"/>
<path d="M72.1764 57.04H66.2167V53.3048L72.1764 52.3668V57.04Z" fill="url(#paint5_linear_1_929)"/>
<path d="M72.1768 52.3671L66.2154 53.305L64.7529 52.5214L62.4055 51.2648L61.4775 50.7667H61.4758V46.6381L62.4055 47.1361L63.4995 47.7204L64.7529 48.3911L65.0982 48.5771L72.1768 52.3671Z" fill="url(#paint6_linear_1_929)"/>
<path d="M56.9984 52.3668H50.7763V58.0942H56.9984V52.3668Z" fill="url(#paint7_linear_1_929)"/>
<path d="M65.098 48.5771L64.7527 48.7862L62.4053 50.204L61.4773 50.7667H61.4756L60.8763 51.1303L58.529 52.5497L57.0116 53.4677L56.9984 53.4644L50.7763 52.3671L58.529 48.2152L59.3839 47.757L60.8763 46.9585L61.4756 46.6381L62.4053 47.1361L63.1789 47.5478L64.7527 48.3911L65.098 48.5771Z" fill="url(#paint8_linear_1_929)"/>
<path d="M56.9984 56.7545L58.529 57.8335V63.5592L50.7763 58.0925V52.3668L56.9984 56.7545Z" fill="url(#paint9_linear_1_929)"/>
<path d="M60.8763 59.4872L62.4052 60.5662V66.2936L60.8763 65.2145V59.4872Z" fill="url(#paint10_linear_1_929)"/>
<path d="M72.2716 67.5222V73.2512L66.0479 68.8619L64.753 67.9488V62.2215L72.2716 67.5222Z" fill="url(#paint11_linear_1_929)"/>
<path d="M64.7524 52.5221V72.928L62.4051 74.3457V51.2654L64.7524 52.5221Z" fill="url(#paint12_linear_1_929)"/>
<path d="M64.7524 42.1573V48.391L62.4051 47.1359V42.1573H64.7524Z" fill="url(#paint13_linear_1_929)"/>
<path d="M58.5288 42.1573H60.8762V46.9583L59.3838 47.7568L58.5288 48.215V42.1573Z" fill="url(#paint14_linear_1_929)"/>
<path d="M58.5288 77.3519L60.8762 78.6086V82.7522H58.5288V77.3519Z" fill="url(#paint15_linear_1_929)"/>
<path d="M64.7524 77.2765V82.7515H62.4051V78.5315L63.6618 77.8608L64.7524 77.2765Z" fill="url(#paint16_linear_1_929)"/>
<path d="M60.8762 51.1301V74.4778L58.5288 73.2211V52.5495L60.8762 51.1301Z" fill="url(#paint17_linear_1_929)"/>
<path d="M64.7524 52.5221L62.4051 54.4428V51.2654L64.7524 52.5221Z" fill="url(#paint18_linear_1_929)"/>
<path d="M58.5288 52.5495L60.8762 54.3076V51.1301L58.5288 52.5495Z" fill="url(#paint19_linear_1_929)"/>
<path d="M64.7524 72.916L62.4051 70.9969V74.3454L64.7524 72.916Z" fill="url(#paint20_linear_1_929)"/>
<path d="M58.5288 73.2205L60.8762 71.1288V74.4772L58.5288 73.2205Z" fill="url(#paint21_linear_1_929)"/>
<path d="M50.7763 52.3668L57 55.4828L56.9984 56.7545L50.7763 52.3668Z" fill="url(#paint22_linear_1_929)"/>
<path d="M72.2694 73.2578L66.0474 70.1418V68.8701L72.2694 73.2578Z" fill="url(#paint23_linear_1_929)"/>
<defs>
<filter id="filter0_d_1_929" x="0" y="0" width="124" height="124" filterUnits="userSpaceOnUse" color-interpolation-filters="sRGB">
<feFlood flood-opacity="0" result="BackgroundImageFix"/>
<feColorMatrix in="SourceAlpha" type="matrix" values="0 0 0 0 0 0 0 0 0 0 0 0 0 0 0 0 0 0 127 0" result="hardAlpha"/>
<feOffset/>
<feGaussianBlur stdDeviation="6"/>
<feColorMatrix type="matrix" values="0 0 0 0 0 0 0 0 0 0 0 0 0 0 0 0 0 0 0.1 0"/>
<feBlend mode="normal" in2="BackgroundImageFix" result="effect1_dropShadow_1_929"/>
<feBlend mode="normal" in="SourceGraphic" in2="effect1_dropShadow_1_929" result="shape"/>
</filter>
<linearGradient id="paint0_linear_1_929" x1="37.6131" y1="62.6148" x2="103.647" y2="63.5336" gradientUnits="userSpaceOnUse">
<stop stop-color="#4776E6"/>
<stop offset="1" stop-color="#8E54E9"/>
</linearGradient>
<linearGradient id="paint1_linear_1_929" x1="50.8713" y1="70.9134" x2="56.8313" y2="70.9134" gradientUnits="userSpaceOnUse">
<stop stop-color="#60E6AF"/>
<stop offset="1" stop-color="#2C9968"/>
</linearGradient>
<linearGradient id="paint2_linear_1_929" x1="50.8715" y1="75.6461" x2="61.5705" y2="75.6461" gradientUnits="userSpaceOnUse">
<stop stop-color="#60E6AF"/>
<stop offset="1" stop-color="#AEEC60"/>
</linearGradient>
<linearGradient id="paint3_linear_1_929" x1="72.2703" y1="70.387" x2="66.0476" y2="70.387" gradientUnits="userSpaceOnUse">
<stop stop-color="#60E6AF"/>
<stop offset="1" stop-color="#2C9968"/>
</linearGradient>
<linearGradient id="paint4_linear_1_929" x1="57.9488" y1="75.5643" x2="72.2708" y2="75.5643" gradientUnits="userSpaceOnUse">
<stop stop-color="#60E6AF"/>
<stop offset="1" stop-color="#AEEC60"/>
</linearGradient>
<linearGradient id="paint5_linear_1_929" x1="72.176" y1="54.7032" x2="66.216" y2="54.7032" gradientUnits="userSpaceOnUse">
<stop stop-color="#60E6AF"/>
<stop offset="1" stop-color="#2C9968"/>
</linearGradient>
<linearGradient id="paint6_linear_1_929" x1="61.4763" y1="49.9715" x2="72.1766" y2="49.9715" gradientUnits="userSpaceOnUse">
<stop stop-color="#60E6AF"/>
<stop offset="1" stop-color="#AEEC60"/>
</linearGradient>
<linearGradient id="paint7_linear_1_929" x1="50.7769" y1="55.2299" x2="56.9996" y2="55.2299" gradientUnits="userSpaceOnUse">
<stop stop-color="#60E6AF"/>
<stop offset="1" stop-color="#2C9968"/>
</linearGradient>
<linearGradient id="paint8_linear_1_929" x1="50.7771" y1="50.0526" x2="65.0978" y2="50.0526" gradientUnits="userSpaceOnUse">
<stop stop-color="#60E6AF"/>
<stop offset="1" stop-color="#AEEC60"/>
</linearGradient>
<linearGradient id="paint9_linear_1_929" x1="50.7771" y1="57.963" x2="58.5291" y2="57.963" gradientUnits="userSpaceOnUse">
<stop stop-color="#60E6AF"/>
<stop offset="1" stop-color="#2C9968"/>
</linearGradient>
<linearGradient id="paint10_linear_1_929" x1="60.8758" y1="62.891" x2="62.4057" y2="62.891" gradientUnits="userSpaceOnUse">
<stop stop-color="#60E6AF"/>
<stop offset="1" stop-color="#2C9968"/>
</linearGradient>
<linearGradient id="paint11_linear_1_929" x1="64.7528" y1="67.736" x2="72.2711" y2="67.736" gradientUnits="userSpaceOnUse">
<stop stop-color="#60E6AF"/>
<stop offset="1" stop-color="#2C9968"/>
</linearGradient>
<linearGradient id="paint12_linear_1_929" x1="63.5789" y1="74.3457" x2="63.5789" y2="51.265" gradientUnits="userSpaceOnUse">
<stop stop-color="#60E6AF"/>
<stop offset="1" stop-color="#AEEC60"/>
</linearGradient>
<linearGradient id="paint13_linear_1_929" x1="63.5789" y1="48.3903" x2="63.5789" y2="42.1576" gradientUnits="userSpaceOnUse">
<stop stop-color="#60E6AF"/>
<stop offset="1" stop-color="#AEEC60"/>
</linearGradient>
<linearGradient id="paint14_linear_1_929" x1="59.7023" y1="48.215" x2="59.7023" y2="42.1576" gradientUnits="userSpaceOnUse">
<stop stop-color="#60E6AF"/>
<stop offset="1" stop-color="#AEEC60"/>
</linearGradient>
<linearGradient id="paint15_linear_1_929" x1="59.7023" y1="82.7522" x2="59.7023" y2="77.3523" gradientUnits="userSpaceOnUse">
<stop stop-color="#60E6AF"/>
<stop offset="1" stop-color="#AEEC60"/>
</linearGradient>
<linearGradient id="paint16_linear_1_929" x1="63.5789" y1="82.7515" x2="63.5789" y2="77.2758" gradientUnits="userSpaceOnUse">
<stop stop-color="#60E6AF"/>
<stop offset="1" stop-color="#AEEC60"/>
</linearGradient>
<linearGradient id="paint17_linear_1_929" x1="59.7023" y1="74.4778" x2="59.7023" y2="51.1301" gradientUnits="userSpaceOnUse">
<stop stop-color="#60E6AF"/>
<stop offset="1" stop-color="#AEEC60"/>
</linearGradient>
<linearGradient id="paint18_linear_1_929" x1="63.3045" y1="54.3351" x2="63.5897" y2="51.7975" gradientUnits="userSpaceOnUse">
<stop stop-color="#60E6AF" stop-opacity="0"/>
<stop offset="1" stop-color="#2A422F"/>
</linearGradient>
<linearGradient id="paint19_linear_1_929" x1="59.9677" y1="54.2012" x2="59.6825" y2="51.6636" gradientUnits="userSpaceOnUse">
<stop stop-color="#60E6AF" stop-opacity="0"/>
<stop offset="1" stop-color="#2A422F"/>
</linearGradient>
<linearGradient id="paint20_linear_1_929" x1="63.2962" y1="71.1162" x2="63.5968" y2="73.7906" gradientUnits="userSpaceOnUse">
<stop stop-color="#60E6AF" stop-opacity="0"/>
<stop offset="1" stop-color="#2A422F"/>
</linearGradient>
<linearGradient id="paint21_linear_1_929" x1="59.9944" y1="71.2503" x2="59.6939" y2="73.9237" gradientUnits="userSpaceOnUse">
<stop stop-color="#60E6AF" stop-opacity="0"/>
<stop offset="1" stop-color="#2A422F"/>
</linearGradient>
<linearGradient id="paint22_linear_1_929" x1="53.9205" y1="53.7547" x2="53.8209" y2="56.2338" gradientUnits="userSpaceOnUse">
<stop stop-color="#60E6AF" stop-opacity="0"/>
<stop offset="1" stop-color="#2A422F"/>
</linearGradient>
<linearGradient id="paint23_linear_1_929" x1="69.1267" y1="71.8696" x2="69.2263" y2="69.3905" gradientUnits="userSpaceOnUse">
<stop stop-color="#60E6AF" stop-opacity="0"/>
<stop offset="1" stop-color="#2A422F"/>
</linearGradient>
</defs>
</svg>
