<svg width="387" height="142" viewBox="0 0 387 142" fill="none" xmlns="http://www.w3.org/2000/svg">
<g style="mix-blend-mode:color-dodge" opacity="0.2">
<path d="M275.75 90L298.88 90L310.44 110.03L298.88 130.07L275.75 130.07L264.18 110.03L275.75 90Z" fill="url(#paint0_linear_1_291)"/>
<path d="M346.19 10.1L349.35 10.1L350.94 12.85L349.35 15.59L346.19 15.59L344.6 12.85L346.19 10.1Z" fill="url(#paint1_linear_1_291)"/>
<path d="M279.45 10.36L282.79 10.36L284.46 13.26L282.79 16.16L279.45 16.16L277.77 13.26L279.45 10.36Z" fill="url(#paint2_linear_1_291)"/>
<path d="M268.7 45.99L288.68 45.99L298.67 63.3L288.68 80.61L268.7 80.61L258.7 63.3L268.7 45.99Z" fill="url(#paint3_linear_1_291)"/>
<path d="M346.64 84.78L371.36 84.78L383.72 106.19L371.36 127.6L346.64 127.6L334.28 106.19L346.64 84.78Z" fill="url(#paint4_linear_1_291)"/>
<path d="M41.2099 123.93L44.33 123.93L45.89 126.63L44.33 129.33L41.2099 129.33L39.6499 126.63L41.2099 123.93Z" fill="url(#paint5_linear_1_291)"/>
<path d="M287.65 23.28L294.41 23.28L297.79 29.14L294.41 34.99L287.65 34.99L284.27 29.14L287.65 23.28Z" fill="url(#paint6_linear_1_291)"/>
<path d="M188.59 123L195.45 123L198.89 128.95L195.45 134.89L188.59 134.89L185.16 128.95L188.59 123Z" fill="url(#paint7_linear_1_291)"/>
<path d="M105.96 73.02L111.23 73.02L113.87 77.59L111.23 82.15L105.96 82.15L103.32 77.59L105.96 73.02Z" fill="url(#paint8_linear_1_291)"/>
<path d="M329.54 98.6L340.75 98.6L346.35 108.3L340.75 118.01L329.54 118.01L323.93 108.3L329.54 98.6Z" fill="url(#paint9_linear_1_291)"/>
<path d="M111.49 94.26L114.57 94.26L116.11 96.93L114.57 99.6L111.49 99.6L109.95 96.93L111.49 94.26Z" fill="url(#paint10_linear_1_291)"/>
<path d="M211.28 25.01L214.85 25.01L216.63 28.1L214.85 31.19L211.28 31.19L209.5 28.1L211.28 25.01Z" fill="url(#paint11_linear_1_291)"/>
<path d="M130.5 110L148.46 110L157.44 125.56L148.46 141.11L130.5 141.11L121.52 125.56L130.5 110Z" fill="url(#paint12_linear_1_291)"/>
<path d="M216.59 86.76L242.52 86.76L255.49 109.22L242.52 131.69L216.59 131.69L203.62 109.22L216.59 86.76Z" fill="url(#paint13_linear_1_291)"/>
<path d="M167.93 53.88L177.58 53.88L182.41 62.24L177.58 70.61L167.93 70.61L163.1 62.24L167.93 53.88Z" fill="url(#paint14_linear_1_291)"/>
<path d="M148.64 80.32L171.81 80.32L183.4 100.39L171.81 120.45L148.64 120.45L137.05 100.39L148.64 80.32Z" fill="url(#paint15_linear_1_291)"/>
<path d="M325.67 69.71L330.15 69.71L332.4 73.6L330.15 77.49L325.67 77.49L323.42 73.6L325.67 69.71Z" fill="url(#paint16_linear_1_291)"/>
<path d="M197.35 72.3L208.5 72.3L214.08 81.96L208.5 91.62L197.35 91.62L191.77 81.96L197.35 72.3Z" fill="url(#paint17_linear_1_291)"/>
<path d="M236.81 56.16L243.81 56.16L247.31 62.22L243.81 68.28L236.81 68.28L233.32 62.22L236.81 56.16Z" fill="url(#paint18_linear_1_291)"/>
<path d="M272.17 107.85L280.25 107.85L284.29 114.84L280.25 121.84L272.17 121.84L268.13 114.84L272.17 107.85Z" fill="url(#paint19_linear_1_291)"/>
<path d="M345.29 -3.3072e-06L370.51 -1.1024e-06L383.12 21.84L370.51 43.68L345.29 43.68L332.68 21.84L345.29 -3.3072e-06Z" fill="url(#paint20_linear_1_291)"/>
<path d="M298.04 10.43L301.69 10.43L303.52 13.6L301.69 16.76L298.04 16.76L296.21 13.6L298.04 10.43Z" fill="url(#paint21_linear_1_291)"/>
<path d="M298.1 45.94L320.07 45.94L331.05 64.97L320.07 83.99L298.1 83.99L287.11 64.97L298.1 45.94Z" fill="url(#paint22_linear_1_291)"/>
<path d="M212.87 130.39L215.84 130.39L217.33 132.96L215.84 135.54L212.87 135.54L211.38 132.96L212.87 130.39Z" fill="url(#paint23_linear_1_291)"/>
<path d="M236.62 84.93L240.75 84.93L242.82 88.51L240.75 92.08L236.62 92.08L234.56 88.51L236.62 84.93Z" fill="url(#paint24_linear_1_291)"/>
<path d="M175.83 111.7L179.2 111.7L180.89 114.61L179.2 117.53L175.83 117.53L174.15 114.61L175.83 111.7Z" fill="url(#paint25_linear_1_291)"/>
<path d="M366.07 81.64L372.09 81.64L375.09 86.85L372.09 92.06L366.07 92.06L363.06 86.85L366.07 81.64Z" fill="url(#paint26_linear_1_291)"/>
<path d="M190.4 94.18L202.8 94.18L209 104.92L202.8 115.66L190.4 115.66L184.2 104.92L190.4 94.18Z" fill="url(#paint27_linear_1_291)"/>
<path d="M104.36 107.36L116.35 107.36L122.34 117.74L116.35 128.12L104.36 128.12L98.3699 117.74L104.36 107.36Z" fill="url(#paint28_linear_1_291)"/>
<path d="M110.58 130.31L113.57 130.31L115.06 132.9L113.57 135.49L110.58 135.49L109.09 132.9L110.58 130.31Z" fill="url(#paint29_linear_1_291)"/>
<path d="M74.64 88.72L79.5199 88.72L81.9699 92.95L79.5199 97.18L74.64 97.18L72.2 92.95L74.64 88.72Z" fill="url(#paint30_linear_1_291)"/>
<path d="M332.7 49.19L340.87 49.19L344.95 56.26L340.87 63.34L332.7 63.34L328.62 56.26L332.7 49.19Z" fill="url(#paint31_linear_1_291)"/>
<path d="M370.01 5.26999L380.35 5.26999L385.52 14.22L380.35 23.18L370.01 23.18L364.84 14.22L370.01 5.26999Z" fill="url(#paint32_linear_1_291)"/>
<path d="M311.34 103.75L317.02 103.75L319.87 108.67L317.02 113.6L311.34 113.6L308.5 108.67L311.34 103.75Z" fill="url(#paint33_linear_1_291)"/>
<path d="M143.09 81.44L140.52 85.9L143.09 90.36L148.24 90.36L150.81 85.9L148.24 81.44L143.09 81.44ZM142.9 81.11L148.44 81.11L151.21 85.9L148.44 90.69L142.9 90.69L140.13 85.9L142.9 81.11Z" fill="url(#paint34_linear_1_291)"/>
<path d="M255.27 75.34L252.04 80.94L255.27 86.54L261.74 86.54L264.97 80.94L261.74 75.34L255.27 75.34ZM255.02 74.92L261.97 74.92L265.45 80.94L261.97 86.96L255.02 86.96L251.54 80.94L255.02 74.92Z" fill="url(#paint35_linear_1_291)"/>
<path d="M98.54 86.61L86.19 108L98.54 129.39L123.24 129.39L135.59 108L123.24 86.61L98.54 86.61ZM97.61 85L124.16 85L137.44 108L124.16 131L97.61 131L84.33 108L97.61 85Z" fill="url(#paint36_linear_1_291)"/>
<path d="M246.01 110.6L240.95 119.37L246.01 128.14L256.14 128.14L261.2 119.37L256.14 110.6L246.01 110.6ZM245.63 109.94L256.52 109.94L261.96 119.37L256.52 128.8L245.63 128.8L240.19 119.37L245.63 109.94Z" fill="url(#paint37_linear_1_291)"/>
<path d="M330.06 25.02L327.43 29.58L330.06 34.14L335.32 34.14L337.95 29.58L335.32 25.02L330.06 25.02ZM329.87 24.68L335.53 24.68L338.36 29.58L335.53 34.48L329.87 34.48L327.04 29.58L329.87 24.68Z" fill="url(#paint38_linear_1_291)"/>
<path d="M254.01 98.68L251.74 102.61L254.01 106.54L258.55 106.54L260.82 102.61L258.55 98.68L254.01 98.68ZM253.84 98.38L258.72 98.38L261.16 102.61L258.72 106.84L253.84 106.84L251.4 102.61L253.84 98.38Z" fill="url(#paint39_linear_1_291)"/>
<path d="M262.77 13.13L261.22 15.82L262.77 18.51L265.87 18.51L267.42 15.82L265.87 13.13L262.77 13.13ZM262.65 12.93L265.99 12.93L267.66 15.82L265.99 18.71L262.65 18.71L260.98 15.82L262.65 12.93Z" fill="url(#paint40_linear_1_291)"/>
<path d="M314.37 72.56L303.7 91.04L314.37 109.52L335.71 109.52L346.38 91.04L335.71 72.56L314.37 72.56ZM313.57 71.17L336.51 71.17L347.98 91.03L336.51 110.89L313.57 110.89L302.1 91.03L313.57 71.17Z" fill="url(#paint41_linear_1_291)"/>
<path d="M302.61 85.58L301.19 88.04L302.61 90.5L305.45 90.5L306.87 88.04L305.45 85.58L302.61 85.58ZM302.51 85.39L305.57 85.39L307.1 88.04L305.57 90.69L302.51 90.69L300.98 88.04L302.51 85.39Z" fill="url(#paint42_linear_1_291)"/>
<path d="M129.35 123.71L127.46 126.99L129.35 130.27L133.13 130.27L135.02 126.99L133.13 123.71L129.35 123.71ZM129.21 123.47L133.28 123.47L135.31 126.99L133.28 130.51L129.21 130.51L127.18 126.99L129.21 123.47Z" fill="url(#paint43_linear_1_291)"/>
<path d="M67.7999 112.02L59.9799 125.56L67.7999 139.1L83.4399 139.1L91.2599 125.56L83.4399 112.02L67.7999 112.02ZM67.2199 111L84.0299 111L92.4399 125.56L84.0299 140.12L67.2199 140.12L58.8099 125.56L67.2199 111Z" fill="url(#paint44_linear_1_291)"/>
<path d="M342.42 50.8L330.36 71.69L342.42 92.58L366.54 92.58L378.6 71.69L366.54 50.8L342.42 50.8ZM341.51 49.23L367.44 49.23L380.41 71.69L367.44 94.15L341.51 94.15L328.54 71.69L341.51 49.23Z" fill="url(#paint45_linear_1_291)"/>
<path d="M298.37 117.12L296.98 119.52L298.37 121.92L301.14 121.92L302.53 119.52L301.14 117.12L298.37 117.12ZM298.27 116.94L301.25 116.94L302.74 119.52L301.25 122.1L298.27 122.1L296.78 119.52L298.27 116.94Z" fill="url(#paint46_linear_1_291)"/>
<path d="M348.84 42.66L347.21 45.48L348.84 48.3L352.1 48.3L353.73 45.48L352.1 42.66L348.84 42.66ZM348.72 42.45L352.22 42.45L353.97 45.48L352.22 48.51L348.72 48.51L346.97 45.48L348.72 42.45Z" fill="url(#paint47_linear_1_291)"/>
<path d="M160.04 71.07L158.32 74.05L160.04 77.03L163.48 77.03L165.2 74.05L163.48 71.07L160.04 71.07ZM159.91 70.84L163.61 70.84L165.46 74.04L163.61 77.24L159.91 77.24L158.06 74.04L159.91 70.84Z" fill="url(#paint48_linear_1_291)"/>
<path d="M211.02 113.38L208.03 118.56L211.02 123.74L217 123.74L219.99 118.56L217 113.38L211.02 113.38ZM210.79 112.99L217.22 112.99L220.43 118.56L217.22 124.13L210.79 124.13L207.58 118.56L210.79 112.99Z" fill="url(#paint49_linear_1_291)"/>
<path d="M376.18 60.91L372.92 66.55L376.18 72.19L382.7 72.19L385.96 66.55L382.7 60.91L376.18 60.91ZM375.94 60.49L382.94 60.49L386.44 66.55L382.94 72.61L375.94 72.61L372.44 66.55L375.94 60.49Z" fill="url(#paint50_linear_1_291)"/>
<path d="M363.69 126.9L362.01 129.82L363.69 132.74L367.06 132.74L368.74 129.82L367.06 126.9L363.69 126.9ZM363.56 126.68L367.18 126.68L368.99 129.82L367.18 132.96L363.56 132.96L361.75 129.82L363.56 126.68Z" fill="url(#paint51_linear_1_291)"/>
<path d="M200.77 47.23L189.93 66.01L200.77 84.79L222.46 84.79L233.3 66.01L222.46 47.23L200.77 47.23ZM199.96 45.82L223.28 45.82L234.94 66.01L223.28 86.2L199.96 86.2L188.3 66.01L199.96 45.82Z" fill="url(#paint52_linear_1_291)"/>
<path d="M18.7099 125.12L15.9699 129.86L18.7099 134.6L24.1799 134.6L26.92 129.86L24.1799 125.12L18.7099 125.12ZM18.5099 124.76L24.39 124.76L27.33 129.85L24.39 134.94L18.5099 134.94L15.5699 129.85L18.5099 124.76Z" fill="url(#paint53_linear_1_291)"/>
<path d="M248.08 25.33L241.02 37.56L248.08 49.79L262.21 49.79L269.27 37.56L262.21 25.33L248.08 25.33ZM247.55 24.41L262.74 24.41L270.33 37.56L262.74 50.71L247.55 50.71L239.96 37.56L247.55 24.41Z" fill="url(#paint54_linear_1_291)"/>
<path d="M217.79 67.4L216.2 70.16L217.79 72.92L220.98 72.92L222.57 70.16L220.98 67.4L217.79 67.4ZM217.67 67.2L221.1 67.2L222.81 70.17L221.1 73.14L217.67 73.14L215.96 70.17L217.67 67.2Z" fill="url(#paint55_linear_1_291)"/>
<path d="M261.67 124.77L258.18 130.82L261.67 136.87L268.65 136.87L272.14 130.82L268.65 124.77L261.67 124.77ZM261.41 124.32L268.91 124.32L272.66 130.82L268.91 137.32L261.41 137.32L257.66 130.82L261.41 124.32Z" fill="url(#paint56_linear_1_291)"/>
<path d="M175.29 86.93L173.44 90.13L175.29 93.33L178.99 93.33L180.84 90.13L178.99 86.93L175.29 86.93ZM175.15 86.69L179.13 86.69L181.12 90.13L179.13 93.57L175.15 93.57L173.16 90.13L175.15 86.69Z" fill="url(#paint57_linear_1_291)"/>
<path d="M56.5899 103.94L55.0699 106.57L56.5899 109.2L59.6299 109.2L61.1499 106.57L59.6299 103.94L56.5899 103.94ZM56.4799 103.74L59.7499 103.74L61.3799 106.57L59.7499 109.4L56.4799 109.4L54.8499 106.57L56.4799 103.74Z" fill="url(#paint58_linear_1_291)"/>
<path d="M216.22 10.52C216.038 10.52 215.89 10.3722 215.89 10.19C215.89 10.0077 216.038 9.85999 216.22 9.85999C216.402 9.85999 216.55 10.0077 216.55 10.19C216.55 10.3722 216.402 10.52 216.22 10.52Z" fill="url(#paint59_linear_1_291)"/>
<path d="M245.52 11.07C245.52 11.6 245.95 12.03 246.48 12.03C247.01 12.03 247.44 11.6 247.44 11.07C247.44 10.54 247.01 10.11 246.48 10.11C245.95 10.11 245.52 10.54 245.52 11.07Z" fill="url(#paint60_linear_1_291)"/>
<path d="M343.41 128.38C342.714 128.38 342.15 127.816 342.15 127.12C342.15 126.424 342.714 125.86 343.41 125.86C344.106 125.86 344.67 126.424 344.67 127.12C344.67 127.816 344.106 128.38 343.41 128.38Z" fill="url(#paint61_linear_1_291)"/>
<path d="M30.39 106.75C30.39 106.95 30.5599 107.12 30.7599 107.12C30.9599 107.12 31.1299 106.95 31.1299 106.75C31.1299 106.55 30.9599 106.38 30.7599 106.38C30.5599 106.38 30.39 106.55 30.39 106.75Z" fill="url(#paint62_linear_1_291)"/>
<path d="M125.58 76.8C125.58 77.99 126.54 78.95 127.73 78.95C128.92 78.95 129.88 77.99 129.88 76.8C129.88 75.61 128.92 74.65 127.73 74.65C126.54 74.65 125.58 75.61 125.58 76.8Z" fill="url(#paint63_linear_1_291)"/>
<path d="M186.01 72.48C185.717 72.48 185.48 72.2427 185.48 71.95C185.48 71.6573 185.717 71.42 186.01 71.42C186.303 71.42 186.54 71.6573 186.54 71.95C186.54 72.2427 186.303 72.48 186.01 72.48Z" fill="url(#paint64_linear_1_291)"/>
<path d="M67.9299 119.94C67.9299 120.11 68.0699 120.25 68.2399 120.25C68.4099 120.25 68.5499 120.11 68.5499 119.94C68.5499 119.77 68.4099 119.63 68.2399 119.63C68.0699 119.63 67.9299 119.77 67.9299 119.94Z" fill="url(#paint65_linear_1_291)"/>
<path d="M373.13 114.41C373.13 115.42 373.95 116.23 374.95 116.23C375.96 116.23 376.77 115.41 376.77 114.41C376.77 113.4 375.95 112.59 374.95 112.59C373.95 112.58 373.13 113.4 373.13 114.41Z" fill="url(#paint66_linear_1_291)"/>
<path d="M149.49 133.07C149.49 133.37 149.73 133.62 150.04 133.62C150.34 133.62 150.59 133.38 150.59 133.07C150.59 132.77 150.35 132.52 150.04 132.52C149.74 132.53 149.49 132.77 149.49 133.07Z" fill="url(#paint67_linear_1_291)"/>
<path d="M66.6199 133.75C66.6199 134.2 66.9799 134.56 67.4299 134.56C67.8799 134.56 68.2399 134.2 68.2399 133.75C68.2399 133.3 67.8799 132.94 67.4299 132.94C66.9799 132.94 66.6199 133.3 66.6199 133.75Z" fill="url(#paint68_linear_1_291)"/>
<path d="M319.35 45.36C319.35 45.52 319.48 45.65 319.64 45.65C319.8 45.65 319.93 45.52 319.93 45.36C319.93 45.2 319.8 45.07 319.64 45.07C319.48 45.07 319.35 45.2 319.35 45.36Z" fill="url(#paint69_linear_1_291)"/>
<path d="M344.68 89.07C344.68 90.02 345.45 90.8 346.41 90.8C347.37 90.8 348.14 90.03 348.14 89.07C348.14 88.12 347.37 87.34 346.41 87.34C345.45 87.34 344.68 88.12 344.68 89.07Z" fill="url(#paint70_linear_1_291)"/>
<path d="M187.96 55.61C187.54 55.61 187.2 55.2697 187.2 54.85C187.2 54.4302 187.54 54.09 187.96 54.09C188.38 54.09 188.72 54.4302 188.72 54.85C188.72 55.2697 188.38 55.61 187.96 55.61Z" fill="url(#paint71_linear_1_291)"/>
<path d="M317.45 132.61C316.202 132.61 315.19 131.598 315.19 130.35C315.19 129.102 316.202 128.09 317.45 128.09C318.698 128.09 319.71 129.102 319.71 130.35C319.71 131.598 318.698 132.61 317.45 132.61Z" fill="url(#paint72_linear_1_291)"/>
<path d="M236.95 130.97C236.95 131.21 237.15 131.41 237.39 131.41C237.63 131.41 237.83 131.21 237.83 130.97C237.83 130.73 237.63 130.53 237.39 130.53C237.14 130.53 236.95 130.73 236.95 130.97Z" fill="url(#paint73_linear_1_291)"/>
<path d="M381.08 129.08C381.08 129.47 381.4 129.79 381.79 129.79C382.18 129.79 382.5 129.47 382.5 129.08C382.5 128.69 382.18 128.37 381.79 128.37C381.39 128.37 381.08 128.69 381.08 129.08Z" fill="url(#paint74_linear_1_291)"/>
<path d="M381.39 96.36C381.39 96.51 381.52 96.64 381.67 96.64C381.82 96.64 381.95 96.51 381.95 96.36C381.95 96.2 381.82 96.08 381.67 96.08C381.52 96.08 381.39 96.21 381.39 96.36Z" fill="url(#paint75_linear_1_291)"/>
<path d="M366.49 55.31C366.125 55.31 365.83 55.0145 365.83 54.65C365.83 54.2855 366.125 53.99 366.49 53.99C366.854 53.99 367.15 54.2855 367.15 54.65C367.15 55.0145 366.854 55.31 366.49 55.31Z" fill="url(#paint76_linear_1_291)"/>
<path d="M86.3799 74.33C86.3799 74.98 86.9099 75.51 87.5599 75.51C88.2099 75.51 88.7399 74.98 88.7399 74.33C88.7399 73.68 88.2099 73.15 87.5599 73.15C86.9099 73.15 86.3799 73.68 86.3799 74.33Z" fill="url(#paint77_linear_1_291)"/>
<path d="M317.35 17.04C317.35 17.71 317.9 18.26 318.57 18.26C319.24 18.26 319.79 17.71 319.79 17.04C319.79 16.37 319.24 15.82 318.57 15.82C317.89 15.82 317.35 16.36 317.35 17.04Z" fill="url(#paint78_linear_1_291)"/>
<path d="M218.61 92.42C218.439 92.42 218.3 92.2812 218.3 92.11C218.3 91.9388 218.439 91.8 218.61 91.8C218.781 91.8 218.92 91.9388 218.92 92.11C218.92 92.2812 218.781 92.42 218.61 92.42Z" fill="url(#paint79_linear_1_291)"/>
<path d="M278.86 47.55C278.86 47.75 279.03 47.92 279.23 47.92C279.43 47.92 279.6 47.75 279.6 47.55C279.6 47.35 279.43 47.18 279.23 47.18C279.03 47.18 278.86 47.34 278.86 47.55Z" fill="url(#paint80_linear_1_291)"/>
<path d="M286.98 133.19C286.174 133.19 285.52 132.536 285.52 131.73C285.52 130.924 286.174 130.27 286.98 130.27C287.786 130.27 288.44 130.924 288.44 131.73C288.44 132.536 287.786 133.19 286.98 133.19Z" fill="url(#paint81_linear_1_291)"/>
<path d="M0.279938 132.23C0.125298 132.23 -6.10732e-05 132.105 -6.10596e-05 131.95C-6.10461e-05 131.795 0.125298 131.67 0.279938 131.67C0.434577 131.67 0.559937 131.795 0.559936 131.95C0.559936 132.105 0.434577 132.23 0.279938 132.23Z" fill="url(#paint82_linear_1_291)"/>
<path d="M233.57 21.7C232.609 21.7 231.83 20.921 231.83 19.96C231.83 18.999 232.609 18.22 233.57 18.22C234.531 18.22 235.31 18.999 235.31 19.96C235.31 20.921 234.531 21.7 233.57 21.7Z" fill="url(#paint83_linear_1_291)"/>
<path d="M376.07 36.07C376.07 37.12 376.92 37.97 377.97 37.97C379.02 37.97 379.87 37.12 379.87 36.07C379.87 35.02 379.02 34.17 377.97 34.17C376.92 34.17 376.07 35.02 376.07 36.07Z" fill="url(#paint84_linear_1_291)"/>
<path d="M166.93 128.98C166.704 128.98 166.52 128.796 166.52 128.57C166.52 128.344 166.704 128.16 166.93 128.16C167.156 128.16 167.34 128.344 167.34 128.57C167.34 128.796 167.156 128.98 166.93 128.98Z" fill="url(#paint85_linear_1_291)"/>
<path d="M88.4299 125.99C88.2698 125.99 88.14 125.86 88.14 125.7C88.14 125.54 88.2698 125.41 88.4299 125.41C88.5901 125.41 88.7199 125.54 88.7199 125.7C88.7199 125.86 88.5901 125.99 88.4299 125.99Z" fill="url(#paint86_linear_1_291)"/>
</g>
<defs>
<linearGradient id="paint0_linear_1_291" x1="308.111" y1="155.741" x2="245.237" y2="17.5841" gradientUnits="userSpaceOnUse">
<stop stop-color="#415DFF"/>
<stop offset="0.5438" stop-color="#6665FF"/>
<stop offset="1" stop-color="#806AFF"/>
</linearGradient>
<linearGradient id="paint1_linear_1_291" x1="389.91" y1="105.445" x2="327.037" y2="-32.7117" gradientUnits="userSpaceOnUse">
<stop stop-color="#415DFF"/>
<stop offset="0.5438" stop-color="#6665FF"/>
<stop offset="1" stop-color="#806AFF"/>
</linearGradient>
<linearGradient id="paint2_linear_1_291" x1="334.538" y1="130.644" x2="271.664" y2="-7.51247" gradientUnits="userSpaceOnUse">
<stop stop-color="#415DFF"/>
<stop offset="0.5438" stop-color="#6665FF"/>
<stop offset="1" stop-color="#806AFF"/>
</linearGradient>
<linearGradient id="paint3_linear_1_291" x1="313.66" y1="140.146" x2="250.786" y2="1.98899" gradientUnits="userSpaceOnUse">
<stop stop-color="#415DFF"/>
<stop offset="0.5438" stop-color="#6665FF"/>
<stop offset="1" stop-color="#806AFF"/>
</linearGradient>
<linearGradient id="paint4_linear_1_291" x1="364.021" y1="117.227" x2="301.147" y2="-20.93" gradientUnits="userSpaceOnUse">
<stop stop-color="#415DFF"/>
<stop offset="0.5438" stop-color="#6665FF"/>
<stop offset="1" stop-color="#806AFF"/>
</linearGradient>
<linearGradient id="paint5_linear_1_291" x1="94.3405" y1="239.956" x2="31.4668" y2="101.799" gradientUnits="userSpaceOnUse">
<stop stop-color="#415DFF"/>
<stop offset="0.5438" stop-color="#6665FF"/>
<stop offset="1" stop-color="#806AFF"/>
</linearGradient>
<linearGradient id="paint6_linear_1_291" x1="336.767" y1="129.63" x2="273.893" y2="-8.52668" gradientUnits="userSpaceOnUse">
<stop stop-color="#415DFF"/>
<stop offset="0.5438" stop-color="#6665FF"/>
<stop offset="1" stop-color="#806AFF"/>
</linearGradient>
<linearGradient id="paint7_linear_1_291" x1="217.114" y1="184.083" x2="154.24" y2="45.9262" gradientUnits="userSpaceOnUse">
<stop stop-color="#415DFF"/>
<stop offset="0.5438" stop-color="#6665FF"/>
<stop offset="1" stop-color="#806AFF"/>
</linearGradient>
<linearGradient id="paint8_linear_1_291" x1="167.364" y1="206.724" x2="104.49" y2="68.5668" gradientUnits="userSpaceOnUse">
<stop stop-color="#415DFF"/>
<stop offset="0.5438" stop-color="#6665FF"/>
<stop offset="1" stop-color="#806AFF"/>
</linearGradient>
<linearGradient id="paint9_linear_1_291" x1="343.463" y1="126.583" x2="280.589" y2="-11.574" gradientUnits="userSpaceOnUse">
<stop stop-color="#415DFF"/>
<stop offset="0.5438" stop-color="#6665FF"/>
<stop offset="1" stop-color="#806AFF"/>
</linearGradient>
<linearGradient id="paint10_linear_1_291" x1="163.747" y1="208.37" x2="100.873" y2="70.2119" gradientUnits="userSpaceOnUse">
<stop stop-color="#415DFF"/>
<stop offset="0.5438" stop-color="#6665FF"/>
<stop offset="1" stop-color="#806AFF"/>
</linearGradient>
<linearGradient id="paint11_linear_1_291" x1="272.568" y1="158.846" x2="209.694" y2="20.689" gradientUnits="userSpaceOnUse">
<stop stop-color="#415DFF"/>
<stop offset="0.5438" stop-color="#6665FF"/>
<stop offset="1" stop-color="#806AFF"/>
</linearGradient>
<linearGradient id="paint12_linear_1_291" x1="176.77" y1="207.49" x2="113.896" y2="69.3327" gradientUnits="userSpaceOnUse">
<stop stop-color="#415DFF"/>
<stop offset="0.5438" stop-color="#6665FF"/>
<stop offset="1" stop-color="#806AFF"/>
</linearGradient>
<linearGradient id="paint13_linear_1_291" x1="255.643" y1="166.549" x2="192.769" y2="28.3916" gradientUnits="userSpaceOnUse">
<stop stop-color="#415DFF"/>
<stop offset="0.5438" stop-color="#6665FF"/>
<stop offset="1" stop-color="#806AFF"/>
</linearGradient>
<linearGradient id="paint14_linear_1_291" x1="226.3" y1="179.902" x2="163.426" y2="41.7456" gradientUnits="userSpaceOnUse">
<stop stop-color="#415DFF"/>
<stop offset="0.5438" stop-color="#6665FF"/>
<stop offset="1" stop-color="#806AFF"/>
</linearGradient>
<linearGradient id="paint15_linear_1_291" x1="201.54" y1="191.171" x2="138.666" y2="53.0137" gradientUnits="userSpaceOnUse">
<stop stop-color="#415DFF"/>
<stop offset="0.5438" stop-color="#6665FF"/>
<stop offset="1" stop-color="#806AFF"/>
</linearGradient>
<linearGradient id="paint16_linear_1_291" x1="350.554" y1="123.356" x2="287.68" y2="-14.8014" gradientUnits="userSpaceOnUse">
<stop stop-color="#415DFF"/>
<stop offset="0.5438" stop-color="#6665FF"/>
<stop offset="1" stop-color="#806AFF"/>
</linearGradient>
<linearGradient id="paint17_linear_1_291" x1="243.861" y1="171.911" x2="180.987" y2="33.7537" gradientUnits="userSpaceOnUse">
<stop stop-color="#415DFF"/>
<stop offset="0.5438" stop-color="#6665FF"/>
<stop offset="1" stop-color="#806AFF"/>
</linearGradient>
<linearGradient id="paint18_linear_1_291" x1="282.274" y1="154.429" x2="219.4" y2="16.2717" gradientUnits="userSpaceOnUse">
<stop stop-color="#415DFF"/>
<stop offset="0.5438" stop-color="#6665FF"/>
<stop offset="1" stop-color="#806AFF"/>
</linearGradient>
<linearGradient id="paint19_linear_1_291" x1="292.175" y1="149.923" x2="229.301" y2="11.7665" gradientUnits="userSpaceOnUse">
<stop stop-color="#415DFF"/>
<stop offset="0.5438" stop-color="#6665FF"/>
<stop offset="1" stop-color="#806AFF"/>
</linearGradient>
<linearGradient id="paint20_linear_1_291" x1="394.911" y1="103.17" x2="332.037" y2="-34.9874" gradientUnits="userSpaceOnUse">
<stop stop-color="#415DFF"/>
<stop offset="0.5438" stop-color="#6665FF"/>
<stop offset="1" stop-color="#806AFF"/>
</linearGradient>
<linearGradient id="paint21_linear_1_291" x1="349.941" y1="123.633" x2="287.068" y2="-14.5232" gradientUnits="userSpaceOnUse">
<stop stop-color="#415DFF"/>
<stop offset="0.5438" stop-color="#6665FF"/>
<stop offset="1" stop-color="#806AFF"/>
</linearGradient>
<linearGradient id="paint22_linear_1_291" x1="338.211" y1="128.973" x2="275.338" y2="-9.1845" gradientUnits="userSpaceOnUse">
<stop stop-color="#415DFF"/>
<stop offset="0.5438" stop-color="#6665FF"/>
<stop offset="1" stop-color="#806AFF"/>
</linearGradient>
<linearGradient id="paint23_linear_1_291" x1="234.103" y1="176.352" x2="171.228" y2="38.193" gradientUnits="userSpaceOnUse">
<stop stop-color="#415DFF"/>
<stop offset="0.5438" stop-color="#6665FF"/>
<stop offset="1" stop-color="#806AFF"/>
</linearGradient>
<linearGradient id="paint24_linear_1_291" x1="271.019" y1="159.551" x2="208.146" y2="21.3942" gradientUnits="userSpaceOnUse">
<stop stop-color="#415DFF"/>
<stop offset="0.5438" stop-color="#6665FF"/>
<stop offset="1" stop-color="#806AFF"/>
</linearGradient>
<linearGradient id="paint25_linear_1_291" x1="210.5" y1="187.094" x2="147.625" y2="48.9362" gradientUnits="userSpaceOnUse">
<stop stop-color="#415DFF"/>
<stop offset="0.5438" stop-color="#6665FF"/>
<stop offset="1" stop-color="#806AFF"/>
</linearGradient>
<linearGradient id="paint26_linear_1_291" x1="379.661" y1="110.109" x2="316.788" y2="-28.0477" gradientUnits="userSpaceOnUse">
<stop stop-color="#415DFF"/>
<stop offset="0.5438" stop-color="#6665FF"/>
<stop offset="1" stop-color="#806AFF"/>
</linearGradient>
<linearGradient id="paint27_linear_1_291" x1="229.967" y1="178.233" x2="167.093" y2="40.0767" gradientUnits="userSpaceOnUse">
<stop stop-color="#415DFF"/>
<stop offset="0.5438" stop-color="#6665FF"/>
<stop offset="1" stop-color="#806AFF"/>
</linearGradient>
<linearGradient id="paint28_linear_1_291" x1="153.683" y1="212.949" x2="90.8096" y2="74.7927" gradientUnits="userSpaceOnUse">
<stop stop-color="#415DFF"/>
<stop offset="0.5438" stop-color="#6665FF"/>
<stop offset="1" stop-color="#806AFF"/>
</linearGradient>
<linearGradient id="paint29_linear_1_291" x1="149.395" y1="214.903" x2="86.5202" y2="76.7442" gradientUnits="userSpaceOnUse">
<stop stop-color="#415DFF"/>
<stop offset="0.5438" stop-color="#6665FF"/>
<stop offset="1" stop-color="#806AFF"/>
</linearGradient>
<linearGradient id="paint30_linear_1_291" x1="135.463" y1="221.242" x2="72.5887" y2="83.0843" gradientUnits="userSpaceOnUse">
<stop stop-color="#415DFF"/>
<stop offset="0.5438" stop-color="#6665FF"/>
<stop offset="1" stop-color="#806AFF"/>
</linearGradient>
<linearGradient id="paint31_linear_1_291" x1="364.441" y1="117.036" x2="301.567" y2="-21.1214" gradientUnits="userSpaceOnUse">
<stop stop-color="#415DFF"/>
<stop offset="0.5438" stop-color="#6665FF"/>
<stop offset="1" stop-color="#806AFF"/>
</linearGradient>
<linearGradient id="paint32_linear_1_291" x1="412.098" y1="95.3478" x2="349.224" y2="-42.8095" gradientUnits="userSpaceOnUse">
<stop stop-color="#415DFF"/>
<stop offset="0.5438" stop-color="#6665FF"/>
<stop offset="1" stop-color="#806AFF"/>
</linearGradient>
<linearGradient id="paint33_linear_1_291" x1="325.956" y1="134.55" x2="263.083" y2="-3.60677" gradientUnits="userSpaceOnUse">
<stop stop-color="#415DFF"/>
<stop offset="0.5438" stop-color="#6665FF"/>
<stop offset="1" stop-color="#806AFF"/>
</linearGradient>
<linearGradient id="paint34_linear_1_291" x1="194.937" y1="194.175" x2="132.064" y2="56.0182" gradientUnits="userSpaceOnUse">
<stop stop-color="#415DFF"/>
<stop offset="0.5438" stop-color="#6665FF"/>
<stop offset="1" stop-color="#806AFF"/>
</linearGradient>
<linearGradient id="paint35_linear_1_291" x1="290.284" y1="150.784" x2="227.41" y2="12.6272" gradientUnits="userSpaceOnUse">
<stop stop-color="#415DFF"/>
<stop offset="0.5438" stop-color="#6665FF"/>
<stop offset="1" stop-color="#806AFF"/>
</linearGradient>
<linearGradient id="paint36_linear_1_291" x1="156.216" y1="207.607" x2="93.3422" y2="69.4504" gradientUnits="userSpaceOnUse">
<stop stop-color="#415DFF"/>
<stop offset="0.5438" stop-color="#6665FF"/>
<stop offset="1" stop-color="#806AFF"/>
</linearGradient>
<linearGradient id="paint37_linear_1_291" x1="269.645" y1="160.176" x2="206.771" y2="22.0199" gradientUnits="userSpaceOnUse">
<stop stop-color="#415DFF"/>
<stop offset="0.5438" stop-color="#6665FF"/>
<stop offset="1" stop-color="#806AFF"/>
</linearGradient>
<linearGradient id="paint38_linear_1_291" x1="371.114" y1="113.999" x2="308.241" y2="-24.1578" gradientUnits="userSpaceOnUse">
<stop stop-color="#415DFF"/>
<stop offset="0.5438" stop-color="#6665FF"/>
<stop offset="1" stop-color="#806AFF"/>
</linearGradient>
<linearGradient id="paint39_linear_1_291" x1="280.281" y1="155.336" x2="217.407" y2="17.1784" gradientUnits="userSpaceOnUse">
<stop stop-color="#415DFF"/>
<stop offset="0.5438" stop-color="#6665FF"/>
<stop offset="1" stop-color="#806AFF"/>
</linearGradient>
<linearGradient id="paint40_linear_1_291" x1="319.659" y1="137.415" x2="256.785" y2="-0.741616" gradientUnits="userSpaceOnUse">
<stop stop-color="#415DFF"/>
<stop offset="0.5438" stop-color="#6665FF"/>
<stop offset="1" stop-color="#806AFF"/>
</linearGradient>
<linearGradient id="paint41_linear_1_291" x1="341.603" y1="127.429" x2="278.729" y2="-10.7277" gradientUnits="userSpaceOnUse">
<stop stop-color="#415DFF"/>
<stop offset="0.5438" stop-color="#6665FF"/>
<stop offset="1" stop-color="#806AFF"/>
</linearGradient>
<linearGradient id="paint42_linear_1_291" x1="325.333" y1="134.834" x2="262.459" y2="-3.32374" gradientUnits="userSpaceOnUse">
<stop stop-color="#415DFF"/>
<stop offset="0.5438" stop-color="#6665FF"/>
<stop offset="1" stop-color="#806AFF"/>
</linearGradient>
<linearGradient id="paint43_linear_1_291" x1="167.499" y1="206.663" x2="104.625" y2="68.5049" gradientUnits="userSpaceOnUse">
<stop stop-color="#415DFF"/>
<stop offset="0.5438" stop-color="#6665FF"/>
<stop offset="1" stop-color="#806AFF"/>
</linearGradient>
<linearGradient id="paint44_linear_1_291" x1="126.521" y1="237.403" x2="63.6474" y2="99.2465" gradientUnits="userSpaceOnUse">
<stop stop-color="#415DFF"/>
<stop offset="0.5438" stop-color="#6665FF"/>
<stop offset="1" stop-color="#806AFF"/>
</linearGradient>
<linearGradient id="paint45_linear_1_291" x1="373.281" y1="113.013" x2="310.407" y2="-25.1445" gradientUnits="userSpaceOnUse">
<stop stop-color="#415DFF"/>
<stop offset="0.5438" stop-color="#6665FF"/>
<stop offset="1" stop-color="#806AFF"/>
</linearGradient>
<linearGradient id="paint46_linear_1_291" x1="309.919" y1="141.849" x2="247.044" y2="3.69037" gradientUnits="userSpaceOnUse">
<stop stop-color="#415DFF"/>
<stop offset="0.5438" stop-color="#6665FF"/>
<stop offset="1" stop-color="#806AFF"/>
</linearGradient>
<linearGradient id="paint47_linear_1_291" x1="379.841" y1="110.027" x2="316.968" y2="-28.129" gradientUnits="userSpaceOnUse">
<stop stop-color="#415DFF"/>
<stop offset="0.5438" stop-color="#6665FF"/>
<stop offset="1" stop-color="#806AFF"/>
</linearGradient>
<linearGradient id="paint48_linear_1_291" x1="212.744" y1="186.072" x2="149.87" y2="47.9139" gradientUnits="userSpaceOnUse">
<stop stop-color="#415DFF"/>
<stop offset="0.5438" stop-color="#6665FF"/>
<stop offset="1" stop-color="#806AFF"/>
</linearGradient>
<linearGradient id="paint49_linear_1_291" x1="239.244" y1="174.011" x2="176.371" y2="35.8545" gradientUnits="userSpaceOnUse">
<stop stop-color="#415DFF"/>
<stop offset="0.5438" stop-color="#6665FF"/>
<stop offset="1" stop-color="#806AFF"/>
</linearGradient>
<linearGradient id="paint50_linear_1_291" x1="395.9" y1="102.719" x2="333.026" y2="-35.4376" gradientUnits="userSpaceOnUse">
<stop stop-color="#415DFF"/>
<stop offset="0.5438" stop-color="#6665FF"/>
<stop offset="1" stop-color="#806AFF"/>
</linearGradient>
<linearGradient id="paint51_linear_1_291" x1="360.392" y1="118.878" x2="297.518" y2="-19.28" gradientUnits="userSpaceOnUse">
<stop stop-color="#415DFF"/>
<stop offset="0.5438" stop-color="#6665FF"/>
<stop offset="1" stop-color="#806AFF"/>
</linearGradient>
<linearGradient id="paint52_linear_1_291" x1="257.071" y1="165.899" x2="194.197" y2="27.742" gradientUnits="userSpaceOnUse">
<stop stop-color="#415DFF"/>
<stop offset="0.5438" stop-color="#6665FF"/>
<stop offset="1" stop-color="#806AFF"/>
</linearGradient>
<linearGradient id="paint53_linear_1_291" x1="75.4627" y1="248.547" x2="12.5891" y2="110.39" gradientUnits="userSpaceOnUse">
<stop stop-color="#415DFF"/>
<stop offset="0.5438" stop-color="#6665FF"/>
<stop offset="1" stop-color="#806AFF"/>
</linearGradient>
<linearGradient id="paint54_linear_1_291" x1="303.859" y1="144.606" x2="240.985" y2="6.44891" gradientUnits="userSpaceOnUse">
<stop stop-color="#415DFF"/>
<stop offset="0.5438" stop-color="#6665FF"/>
<stop offset="1" stop-color="#806AFF"/>
</linearGradient>
<linearGradient id="paint55_linear_1_291" x1="261.941" y1="163.682" x2="199.067" y2="25.526" gradientUnits="userSpaceOnUse">
<stop stop-color="#415DFF"/>
<stop offset="0.5438" stop-color="#6665FF"/>
<stop offset="1" stop-color="#806AFF"/>
</linearGradient>
<linearGradient id="paint56_linear_1_291" x1="276.997" y1="156.831" x2="214.123" y2="18.6731" gradientUnits="userSpaceOnUse">
<stop stop-color="#415DFF"/>
<stop offset="0.5438" stop-color="#6665FF"/>
<stop offset="1" stop-color="#806AFF"/>
</linearGradient>
<linearGradient id="paint57_linear_1_291" x1="219.415" y1="183.035" x2="156.541" y2="44.8785" gradientUnits="userSpaceOnUse">
<stop stop-color="#415DFF"/>
<stop offset="0.5438" stop-color="#6665FF"/>
<stop offset="1" stop-color="#806AFF"/>
</linearGradient>
<linearGradient id="paint58_linear_1_291" x1="114.612" y1="230.729" x2="51.7389" y2="92.5731" gradientUnits="userSpaceOnUse">
<stop stop-color="#415DFF"/>
<stop offset="0.5438" stop-color="#6665FF"/>
<stop offset="1" stop-color="#806AFF"/>
</linearGradient>
<linearGradient id="paint59_linear_1_291" x1="281.926" y1="154.58" x2="219.055" y2="16.4289" gradientUnits="userSpaceOnUse">
<stop stop-color="#415DFF"/>
<stop offset="0.5438" stop-color="#6665FF"/>
<stop offset="1" stop-color="#806AFF"/>
</linearGradient>
<linearGradient id="paint60_linear_1_291" x1="306.669" y1="143.328" x2="243.795" y2="5.17019" gradientUnits="userSpaceOnUse">
<stop stop-color="#415DFF"/>
<stop offset="0.5438" stop-color="#6665FF"/>
<stop offset="1" stop-color="#806AFF"/>
</linearGradient>
<linearGradient id="paint61_linear_1_291" x1="343.218" y1="126.694" x2="280.345" y2="-11.4619" gradientUnits="userSpaceOnUse">
<stop stop-color="#415DFF"/>
<stop offset="0.5438" stop-color="#6665FF"/>
<stop offset="1" stop-color="#806AFF"/>
</linearGradient>
<linearGradient id="paint62_linear_1_291" x1="91.8873" y1="241.068" x2="29.0131" y2="102.916" gradientUnits="userSpaceOnUse">
<stop stop-color="#415DFF"/>
<stop offset="0.5438" stop-color="#6665FF"/>
<stop offset="1" stop-color="#806AFF"/>
</linearGradient>
<linearGradient id="paint63_linear_1_291" x1="183.516" y1="199.373" x2="120.642" y2="61.2155" gradientUnits="userSpaceOnUse">
<stop stop-color="#415DFF"/>
<stop offset="0.5438" stop-color="#6665FF"/>
<stop offset="1" stop-color="#806AFF"/>
</linearGradient>
<linearGradient id="paint64_linear_1_291" x1="233.622" y1="176.571" x2="170.749" y2="38.4129" gradientUnits="userSpaceOnUse">
<stop stop-color="#415DFF"/>
<stop offset="0.5438" stop-color="#6665FF"/>
<stop offset="1" stop-color="#806AFF"/>
</linearGradient>
<linearGradient id="paint65_linear_1_291" x1="117.966" y1="229.204" x2="55.0893" y2="91.0484" gradientUnits="userSpaceOnUse">
<stop stop-color="#415DFF"/>
<stop offset="0.5438" stop-color="#6665FF"/>
<stop offset="1" stop-color="#806AFF"/>
</linearGradient>
<linearGradient id="paint66_linear_1_291" x1="374.139" y1="112.622" x2="311.266" y2="-25.5325" gradientUnits="userSpaceOnUse">
<stop stop-color="#415DFF"/>
<stop offset="0.5438" stop-color="#6665FF"/>
<stop offset="1" stop-color="#806AFF"/>
</linearGradient>
<linearGradient id="paint67_linear_1_291" x1="180.776" y1="200.615" x2="117.905" y2="62.4663" gradientUnits="userSpaceOnUse">
<stop stop-color="#415DFF"/>
<stop offset="0.5438" stop-color="#6665FF"/>
<stop offset="1" stop-color="#806AFF"/>
</linearGradient>
<linearGradient id="paint68_linear_1_291" x1="112.087" y1="231.882" x2="49.2112" y2="93.7225" gradientUnits="userSpaceOnUse">
<stop stop-color="#415DFF"/>
<stop offset="0.5438" stop-color="#6665FF"/>
<stop offset="1" stop-color="#806AFF"/>
</linearGradient>
<linearGradient id="paint69_linear_1_291" x1="354.354" y1="121.632" x2="291.477" y2="-16.5338" gradientUnits="userSpaceOnUse">
<stop stop-color="#415DFF"/>
<stop offset="0.5438" stop-color="#6665FF"/>
<stop offset="1" stop-color="#806AFF"/>
</linearGradient>
<linearGradient id="paint70_linear_1_291" x1="360.043" y1="119.037" x2="297.169" y2="-19.1189" gradientUnits="userSpaceOnUse">
<stop stop-color="#415DFF"/>
<stop offset="0.5438" stop-color="#6665FF"/>
<stop offset="1" stop-color="#806AFF"/>
</linearGradient>
<linearGradient id="paint71_linear_1_291" x1="241.679" y1="172.899" x2="178.807" y2="34.7462" gradientUnits="userSpaceOnUse">
<stop stop-color="#415DFF"/>
<stop offset="0.5438" stop-color="#6665FF"/>
<stop offset="1" stop-color="#806AFF"/>
</linearGradient>
<linearGradient id="paint72_linear_1_291" x1="320.492" y1="137.037" x2="257.618" y2="-1.12038" gradientUnits="userSpaceOnUse">
<stop stop-color="#415DFF"/>
<stop offset="0.5438" stop-color="#6665FF"/>
<stop offset="1" stop-color="#806AFF"/>
</linearGradient>
<linearGradient id="paint73_linear_1_291" x1="253.934" y1="167.325" x2="191.064" y2="29.1727" gradientUnits="userSpaceOnUse">
<stop stop-color="#415DFF"/>
<stop offset="0.5438" stop-color="#6665FF"/>
<stop offset="1" stop-color="#806AFF"/>
</linearGradient>
<linearGradient id="paint74_linear_1_291" x1="374.269" y1="112.563" x2="311.394" y2="-25.5976" gradientUnits="userSpaceOnUse">
<stop stop-color="#415DFF"/>
<stop offset="0.5438" stop-color="#6665FF"/>
<stop offset="1" stop-color="#806AFF"/>
</linearGradient>
<linearGradient id="paint75_linear_1_291" x1="386.508" y1="106.994" x2="323.633" y2="-31.1662" gradientUnits="userSpaceOnUse">
<stop stop-color="#415DFF"/>
<stop offset="0.5438" stop-color="#6665FF"/>
<stop offset="1" stop-color="#806AFF"/>
</linearGradient>
<linearGradient id="paint76_linear_1_291" x1="389.662" y1="105.559" x2="326.788" y2="-32.5997" gradientUnits="userSpaceOnUse">
<stop stop-color="#415DFF"/>
<stop offset="0.5438" stop-color="#6665FF"/>
<stop offset="1" stop-color="#806AFF"/>
</linearGradient>
<linearGradient id="paint77_linear_1_291" x1="151.171" y1="214.092" x2="88.2974" y2="75.9356" gradientUnits="userSpaceOnUse">
<stop stop-color="#415DFF"/>
<stop offset="0.5438" stop-color="#6665FF"/>
<stop offset="1" stop-color="#806AFF"/>
</linearGradient>
<linearGradient id="paint78_linear_1_291" x1="364.139" y1="117.172" x2="301.266" y2="-20.9834" gradientUnits="userSpaceOnUse">
<stop stop-color="#415DFF"/>
<stop offset="0.5438" stop-color="#6665FF"/>
<stop offset="1" stop-color="#806AFF"/>
</linearGradient>
<linearGradient id="paint79_linear_1_291" x1="253.029" y1="167.74" x2="190.154" y2="29.5806" gradientUnits="userSpaceOnUse">
<stop stop-color="#415DFF"/>
<stop offset="0.5438" stop-color="#6665FF"/>
<stop offset="1" stop-color="#806AFF"/>
</linearGradient>
<linearGradient id="paint80_linear_1_291" x1="320.051" y1="137.239" x2="257.177" y2="-0.920951" gradientUnits="userSpaceOnUse">
<stop stop-color="#415DFF"/>
<stop offset="0.5438" stop-color="#6665FF"/>
<stop offset="1" stop-color="#806AFF"/>
</linearGradient>
<linearGradient id="paint81_linear_1_291" x1="294.726" y1="148.763" x2="231.852" y2="10.605" gradientUnits="userSpaceOnUse">
<stop stop-color="#415DFF"/>
<stop offset="0.5438" stop-color="#6665FF"/>
<stop offset="1" stop-color="#806AFF"/>
</linearGradient>
<linearGradient id="paint82_linear_1_291" x1="57.1369" y1="256.888" x2="-5.73763" y2="118.73" gradientUnits="userSpaceOnUse">
<stop stop-color="#415DFF"/>
<stop offset="0.5438" stop-color="#6665FF"/>
<stop offset="1" stop-color="#806AFF"/>
</linearGradient>
<linearGradient id="paint83_linear_1_291" x1="292.619" y1="149.721" x2="229.745" y2="11.5645" gradientUnits="userSpaceOnUse">
<stop stop-color="#415DFF"/>
<stop offset="0.5438" stop-color="#6665FF"/>
<stop offset="1" stop-color="#806AFF"/>
</linearGradient>
<linearGradient id="paint84_linear_1_291" x1="406.174" y1="98.0427" x2="343.301" y2="-40.1126" gradientUnits="userSpaceOnUse">
<stop stop-color="#415DFF"/>
<stop offset="0.5438" stop-color="#6665FF"/>
<stop offset="1" stop-color="#806AFF"/>
</linearGradient>
<linearGradient id="paint85_linear_1_291" x1="196.466" y1="193.476" x2="133.594" y2="55.326" gradientUnits="userSpaceOnUse">
<stop stop-color="#415DFF"/>
<stop offset="0.5438" stop-color="#6665FF"/>
<stop offset="1" stop-color="#806AFF"/>
</linearGradient>
<linearGradient id="paint86_linear_1_291" x1="132.525" y1="222.585" x2="69.6449" y2="84.4214" gradientUnits="userSpaceOnUse">
<stop stop-color="#415DFF"/>
<stop offset="0.5438" stop-color="#6665FF"/>
<stop offset="1" stop-color="#806AFF"/>
</linearGradient>
</defs>
</svg>
