<svg width="387" height="142" viewBox="0 0 387 142" fill="none" xmlns="http://www.w3.org/2000/svg">
<g style="mix-blend-mode:color-dodge" opacity="0.2">
<path d="M110.69 51.1101L87.56 51.1101L76 31.0801L87.56 11.0401L110.69 11.0401L122.26 31.0801L110.69 51.1101Z" fill="url(#paint0_linear_1_150)"/>
<path d="M40.25 131.01L37.09 131.01L35.5 128.26L37.09 125.52L40.25 125.52L41.84 128.26L40.25 131.01Z" fill="url(#paint1_linear_1_150)"/>
<path d="M106.99 130.75L103.65 130.75L101.98 127.85L103.65 124.95L106.99 124.95L108.67 127.85L106.99 130.75Z" fill="url(#paint2_linear_1_150)"/>
<path d="M117.74 95.1201L97.76 95.1201L87.77 77.8101L97.76 60.5001L117.74 60.5001L127.74 77.8101L117.74 95.1201Z" fill="url(#paint3_linear_1_150)"/>
<path d="M39.8 56.3301L15.08 56.3301L2.71997 34.9201L15.08 13.5101L39.8 13.5101L52.16 34.9201L39.8 56.3301Z" fill="url(#paint4_linear_1_150)"/>
<path d="M345.23 17.1801L342.11 17.1801L340.55 14.4801L342.11 11.7801L345.23 11.7801L346.79 14.4801L345.23 17.1801Z" fill="url(#paint5_linear_1_150)"/>
<path d="M98.79 117.83L92.03 117.83L88.65 111.97L92.03 106.12L98.79 106.12L102.17 111.97L98.79 117.83Z" fill="url(#paint6_linear_1_150)"/>
<path d="M197.85 18.1101L190.99 18.1101L187.55 12.1601L190.99 6.22009L197.85 6.22009L201.28 12.1601L197.85 18.1101Z" fill="url(#paint7_linear_1_150)"/>
<path d="M280.48 68.0901L275.21 68.0901L272.57 63.5201L275.21 58.9601L280.48 58.9601L283.12 63.5201L280.48 68.0901Z" fill="url(#paint8_linear_1_150)"/>
<path d="M56.9 42.5101L45.69 42.5101L40.09 32.8101L45.69 23.1001L56.9 23.1001L62.51 32.8101L56.9 42.5101Z" fill="url(#paint9_linear_1_150)"/>
<path d="M274.95 46.8501L271.87 46.8501L270.33 44.1801L271.87 41.5101L274.95 41.5101L276.49 44.1801L274.95 46.8501Z" fill="url(#paint10_linear_1_150)"/>
<path d="M175.16 116.1L171.59 116.1L169.81 113.01L171.59 109.92L175.16 109.92L176.94 113.01L175.16 116.1Z" fill="url(#paint11_linear_1_150)"/>
<path d="M255.94 31.1101L237.98 31.1101L229 15.5501L237.98 9.83971e-05L255.94 9.6827e-05L264.92 15.5501L255.94 31.1101Z" fill="url(#paint12_linear_1_150)"/>
<path d="M169.85 54.3501L143.92 54.3501L130.95 31.8901L143.92 9.4201L169.85 9.4201L182.82 31.8901L169.85 54.3501Z" fill="url(#paint13_linear_1_150)"/>
<path d="M218.51 87.2301L208.86 87.2301L204.03 78.8701L208.86 70.5001L218.51 70.5001L223.34 78.8701L218.51 87.2301Z" fill="url(#paint14_linear_1_150)"/>
<path d="M237.8 60.7901L214.63 60.7901L203.04 40.7201L214.63 20.6601L237.8 20.6601L249.39 40.7201L237.8 60.7901Z" fill="url(#paint15_linear_1_150)"/>
<path d="M60.77 71.4001L56.29 71.4001L54.04 67.5101L56.29 63.6201L60.77 63.6201L63.02 67.5101L60.77 71.4001Z" fill="url(#paint16_linear_1_150)"/>
<path d="M189.09 68.8101L177.94 68.8101L172.36 59.1501L177.94 49.4901L189.09 49.4901L194.67 59.1501L189.09 68.8101Z" fill="url(#paint17_linear_1_150)"/>
<path d="M149.63 84.9501L142.63 84.9501L139.13 78.8901L142.63 72.8301L149.63 72.8301L153.12 78.8901L149.63 84.9501Z" fill="url(#paint18_linear_1_150)"/>
<path d="M114.27 33.2601L106.19 33.2601L102.15 26.2701L106.19 19.2701L114.27 19.2701L118.31 26.2701L114.27 33.2601Z" fill="url(#paint19_linear_1_150)"/>
<path d="M41.15 141.11L15.93 141.11L3.32001 119.27L15.93 97.4301L41.15 97.4301L53.76 119.27L41.15 141.11Z" fill="url(#paint20_linear_1_150)"/>
<path d="M88.4 130.68L84.75 130.68L82.92 127.51L84.75 124.35L88.4 124.35L90.23 127.51L88.4 130.68Z" fill="url(#paint21_linear_1_150)"/>
<path d="M88.34 95.1701L66.37 95.1701L55.39 76.1401L66.37 57.1201L88.34 57.1201L99.33 76.1401L88.34 95.1701Z" fill="url(#paint22_linear_1_150)"/>
<path d="M173.57 10.7201L170.6 10.7201L169.11 8.15009L170.6 5.5701L173.57 5.5701L175.06 8.15008L173.57 10.7201Z" fill="url(#paint23_linear_1_150)"/>
<path d="M149.82 56.1801L145.69 56.1801L143.62 52.6001L145.69 49.0301L149.82 49.0301L151.88 52.6001L149.82 56.1801Z" fill="url(#paint24_linear_1_150)"/>
<path d="M210.61 29.4101L207.24 29.4101L205.55 26.5001L207.24 23.5801L210.61 23.5801L212.29 26.5001L210.61 29.4101Z" fill="url(#paint25_linear_1_150)"/>
<path d="M20.37 59.4701L14.35 59.4701L11.35 54.2601L14.35 49.0501L20.37 49.0501L23.38 54.2601L20.37 59.4701Z" fill="url(#paint26_linear_1_150)"/>
<path d="M196.04 46.9301L183.64 46.9301L177.44 36.1901L183.64 25.4501L196.04 25.4501L202.24 36.1901L196.04 46.9301Z" fill="url(#paint27_linear_1_150)"/>
<path d="M282.08 33.7501L270.09 33.7501L264.1 23.3701L270.09 12.9901L282.08 12.9901L288.07 23.3701L282.08 33.7501Z" fill="url(#paint28_linear_1_150)"/>
<path d="M275.86 10.8001L272.87 10.8001L271.38 8.21008L272.87 5.62008L275.86 5.62008L277.35 8.21007L275.86 10.8001Z" fill="url(#paint29_linear_1_150)"/>
<path d="M311.8 52.3901L306.92 52.3901L304.47 48.1601L306.92 43.9301L311.8 43.9301L314.24 48.1601L311.8 52.3901Z" fill="url(#paint30_linear_1_150)"/>
<path d="M53.74 91.9201L45.57 91.9201L41.49 84.8501L45.57 77.7701L53.74 77.7701L57.82 84.8501L53.74 91.9201Z" fill="url(#paint31_linear_1_150)"/>
<path d="M16.43 135.84L6.08998 135.84L0.919982 126.89L6.08998 117.93L16.43 117.93L21.6 126.89L16.43 135.84Z" fill="url(#paint32_linear_1_150)"/>
<path d="M75.1 37.3601L69.42 37.3601L66.57 32.4401L69.42 27.5101L75.1 27.5101L77.94 32.4401L75.1 37.3601Z" fill="url(#paint33_linear_1_150)"/>
<path d="M243.35 59.6701L245.92 55.2101L243.35 50.7501L238.2 50.7501L235.63 55.2101L238.2 59.6701L243.35 59.6701ZM243.54 60.0001L238 60.0001L235.23 55.2101L238 50.4201L243.54 50.4201L246.31 55.2101L243.54 60.0001Z" fill="url(#paint34_linear_1_150)"/>
<path d="M131.17 65.7701L134.4 60.1701L131.17 54.5701L124.7 54.5701L121.47 60.1701L124.7 65.7701L131.17 65.7701ZM131.42 66.1901L124.47 66.1901L120.99 60.1701L124.47 54.1501L131.42 54.1501L134.9 60.1701L131.42 66.1901Z" fill="url(#paint35_linear_1_150)"/>
<path d="M287.9 54.5001L300.25 33.1101L287.9 11.7201L263.2 11.7201L250.85 33.1101L263.2 54.5001L287.9 54.5001ZM288.83 56.1101L262.28 56.1101L249 33.1101L262.28 10.1101L288.83 10.1101L302.11 33.1101L288.83 56.1101Z" fill="url(#paint36_linear_1_150)"/>
<path d="M140.43 30.5101L145.49 21.7401L140.43 12.9701L130.3 12.9701L125.24 21.7401L130.3 30.5101L140.43 30.5101ZM140.81 31.1701L129.92 31.1701L124.48 21.7401L129.92 12.3101L140.81 12.3101L146.25 21.7401L140.81 31.1701Z" fill="url(#paint37_linear_1_150)"/>
<path d="M56.38 116.09L59.01 111.53L56.38 106.97L51.12 106.97L48.49 111.53L51.12 116.09L56.38 116.09ZM56.57 116.43L50.91 116.43L48.08 111.53L50.91 106.63L56.57 106.63L59.4 111.53L56.57 116.43Z" fill="url(#paint38_linear_1_150)"/>
<path d="M132.43 42.4301L134.7 38.5001L132.43 34.5701L127.89 34.5701L125.62 38.5001L127.89 42.4301L132.43 42.4301ZM132.6 42.7301L127.72 42.7301L125.28 38.5001L127.72 34.2701L132.6 34.2701L135.04 38.5001L132.6 42.7301Z" fill="url(#paint39_linear_1_150)"/>
<path d="M123.67 127.98L125.22 125.29L123.67 122.6L120.57 122.6L119.02 125.29L120.57 127.98L123.67 127.98ZM123.79 128.18L120.45 128.18L118.78 125.29L120.45 122.4L123.79 122.4L125.46 125.29L123.79 128.18Z" fill="url(#paint40_linear_1_150)"/>
<path d="M72.07 68.5501L82.74 50.0701L72.07 31.5901L50.73 31.5901L40.06 50.0701L50.73 68.5501L72.07 68.5501ZM72.87 69.9401L49.93 69.9401L38.46 50.0801L49.93 30.2201L72.87 30.2201L84.34 50.0801L72.87 69.9401Z" fill="url(#paint41_linear_1_150)"/>
<path d="M83.83 55.5301L85.25 53.0701L83.83 50.6101L80.99 50.6101L79.57 53.0701L80.99 55.5301L83.83 55.5301ZM83.93 55.7201L80.87 55.7201L79.34 53.0701L80.87 50.4201L83.93 50.4201L85.46 53.0701L83.93 55.7201Z" fill="url(#paint42_linear_1_150)"/>
<path d="M257.09 17.4001L258.98 14.1201L257.09 10.8401L253.31 10.8401L251.42 14.1201L253.31 17.4001L257.09 17.4001ZM257.23 17.6401L253.16 17.6401L251.13 14.1201L253.16 10.6001L257.23 10.6001L259.26 14.1201L257.23 17.6401Z" fill="url(#paint43_linear_1_150)"/>
<path d="M318.64 29.0901L326.46 15.5501L318.64 2.01009L303 2.01009L295.18 15.5501L303 29.0901L318.64 29.0901ZM319.22 30.1101L302.41 30.1101L294 15.5501L302.41 0.990104L319.22 0.990102L327.63 15.5501L319.22 30.1101Z" fill="url(#paint44_linear_1_150)"/>
<path d="M44.02 90.3101L56.08 69.4201L44.02 48.5301L19.9 48.5301L7.83997 69.4201L19.9 90.3101L44.02 90.3101ZM44.93 91.8801L19 91.8801L6.02997 69.4201L19 46.9601L44.93 46.9601L57.9 69.4201L44.93 91.8801Z" fill="url(#paint45_linear_1_150)"/>
<path d="M88.07 23.9901L89.46 21.5901L88.07 19.1901L85.3 19.1901L83.91 21.5901L85.3 23.9901L88.07 23.9901ZM88.17 24.1701L85.19 24.1701L83.7 21.5901L85.19 19.0101L88.17 19.0101L89.66 21.5901L88.17 24.1701Z" fill="url(#paint46_linear_1_150)"/>
<path d="M37.6 98.4501L39.23 95.6301L37.6 92.8101L34.34 92.8101L32.71 95.6301L34.34 98.4501L37.6 98.4501ZM37.72 98.6601L34.22 98.6601L32.47 95.6301L34.22 92.6001L37.72 92.6001L39.47 95.6301L37.72 98.6601Z" fill="url(#paint47_linear_1_150)"/>
<path d="M226.4 70.0401L228.12 67.0601L226.4 64.0801L222.96 64.0801L221.24 67.0601L222.96 70.0401L226.4 70.0401ZM226.53 70.2701L222.83 70.2701L220.98 67.0701L222.83 63.8701L226.53 63.8701L228.38 67.0701L226.53 70.2701Z" fill="url(#paint48_linear_1_150)"/>
<path d="M175.42 27.7301L178.41 22.5501L175.42 17.3701L169.44 17.3701L166.45 22.5501L169.44 27.7301L175.42 27.7301ZM175.65 28.1201L169.22 28.1201L166.01 22.5501L169.22 16.9801L175.65 16.9801L178.86 22.5501L175.65 28.1201Z" fill="url(#paint49_linear_1_150)"/>
<path d="M10.26 80.2001L13.52 74.5601L10.26 68.9201L3.74 68.9201L0.479999 74.5601L3.74 80.2001L10.26 80.2001ZM10.5 80.6201L3.5 80.6201L-5.29782e-07 74.5601L3.5 68.5001L10.5 68.5001L14 74.5601L10.5 80.6201Z" fill="url(#paint50_linear_1_150)"/>
<path d="M22.75 14.2101L24.43 11.2901L22.75 8.3701L19.38 8.3701L17.7 11.2901L19.38 14.2101L22.75 14.2101ZM22.88 14.4301L19.26 14.4301L17.45 11.2901L19.26 8.1501L22.88 8.1501L24.69 11.2901L22.88 14.4301Z" fill="url(#paint51_linear_1_150)"/>
<path d="M185.67 93.8801L196.51 75.1001L185.67 56.3201L163.98 56.3201L153.14 75.1001L163.98 93.8801L185.67 93.8801ZM186.48 95.2901L163.16 95.2901L151.5 75.1001L163.16 54.9101L186.48 54.9101L198.14 75.1001L186.48 95.2901Z" fill="url(#paint52_linear_1_150)"/>
<path d="M367.73 15.9901L370.47 11.2501L367.73 6.51009L362.26 6.51009L359.52 11.2501L362.26 15.9901L367.73 15.9901ZM367.93 16.3501L362.05 16.3501L359.11 11.2601L362.05 6.17009L367.93 6.17009L370.87 11.2601L367.93 16.3501Z" fill="url(#paint53_linear_1_150)"/>
<path d="M138.36 115.78L145.42 103.55L138.36 91.3201L124.23 91.3201L117.17 103.55L124.23 115.78L138.36 115.78ZM138.89 116.7L123.7 116.7L116.11 103.55L123.7 90.4001L138.89 90.4001L146.48 103.55L138.89 116.7Z" fill="url(#paint54_linear_1_150)"/>
<path d="M168.65 73.7101L170.24 70.9501L168.65 68.1901L165.46 68.1901L163.87 70.9501L165.46 73.7101L168.65 73.7101ZM168.77 73.9101L165.34 73.9101L163.63 70.9401L165.34 67.9701L168.77 67.9701L170.48 70.9401L168.77 73.9101Z" fill="url(#paint55_linear_1_150)"/>
<path d="M124.77 16.3401L128.26 10.2901L124.77 4.24009L117.79 4.24009L114.3 10.2901L117.79 16.3401L124.77 16.3401ZM125.03 16.7901L117.53 16.7901L113.78 10.2901L117.53 3.79011L125.03 3.79011L128.78 10.2901L125.03 16.7901Z" fill="url(#paint56_linear_1_150)"/>
<path d="M211.15 54.1801L213 50.9801L211.15 47.7801L207.45 47.7801L205.6 50.9801L207.45 54.1801L211.15 54.1801ZM211.29 54.4201L207.31 54.4201L205.32 50.9801L207.31 47.5401L211.29 47.5401L213.28 50.9801L211.29 54.4201Z" fill="url(#paint57_linear_1_150)"/>
<path d="M329.85 37.1701L331.37 34.5401L329.85 31.9101L326.81 31.9101L325.29 34.5401L326.81 37.1701L329.85 37.1701ZM329.96 37.3701L326.69 37.3701L325.06 34.5401L326.69 31.7101L329.96 31.7101L331.59 34.5401L329.96 37.3701Z" fill="url(#paint58_linear_1_150)"/>
<path d="M170.22 130.59C170.402 130.59 170.55 130.738 170.55 130.92C170.55 131.102 170.402 131.25 170.22 131.25C170.038 131.25 169.89 131.102 169.89 130.92C169.89 130.738 170.038 130.59 170.22 130.59Z" fill="url(#paint59_linear_1_150)"/>
<path d="M140.92 130.04C140.92 129.51 140.49 129.08 139.96 129.08C139.43 129.08 139 129.51 139 130.04C139 130.57 139.43 131 139.96 131C140.49 131 140.92 130.57 140.92 130.04Z" fill="url(#paint60_linear_1_150)"/>
<path d="M43.03 12.7301C43.7259 12.7301 44.29 13.2942 44.29 13.9901C44.29 14.686 43.7259 15.2501 43.03 15.2501C42.3341 15.2501 41.77 14.686 41.77 13.9901C41.77 13.2942 42.3341 12.7301 43.03 12.7301Z" fill="url(#paint61_linear_1_150)"/>
<path d="M356.05 34.3601C356.05 34.1601 355.88 33.9901 355.68 33.9901C355.48 33.9901 355.31 34.1601 355.31 34.3601C355.31 34.5601 355.48 34.7301 355.68 34.7301C355.88 34.7301 356.05 34.5601 356.05 34.3601Z" fill="url(#paint62_linear_1_150)"/>
<path d="M260.86 64.3101C260.86 63.1201 259.9 62.1601 258.71 62.1601C257.52 62.1601 256.56 63.1201 256.56 64.3101C256.56 65.5001 257.52 66.4601 258.71 66.4601C259.9 66.4601 260.86 65.5001 260.86 64.3101Z" fill="url(#paint63_linear_1_150)"/>
<path d="M200.43 68.6301C200.723 68.6301 200.96 68.8674 200.96 69.1601C200.96 69.4528 200.723 69.6901 200.43 69.6901C200.137 69.6901 199.9 69.4528 199.9 69.1601C199.9 68.8674 200.137 68.6301 200.43 68.6301Z" fill="url(#paint64_linear_1_150)"/>
<path d="M318.51 21.1701C318.51 21.0001 318.37 20.8601 318.2 20.8601C318.03 20.8601 317.89 21.0001 317.89 21.1701C317.89 21.3401 318.03 21.4801 318.2 21.4801C318.37 21.4801 318.51 21.3401 318.51 21.1701Z" fill="url(#paint65_linear_1_150)"/>
<path d="M13.31 26.7001C13.31 25.6901 12.49 24.8801 11.49 24.8801C10.48 24.8801 9.66998 25.7001 9.66998 26.7001C9.66998 27.7101 10.49 28.5201 11.49 28.5201C12.49 28.5301 13.31 27.7101 13.31 26.7001Z" fill="url(#paint66_linear_1_150)"/>
<path d="M236.95 8.04009C236.95 7.74009 236.71 7.49007 236.4 7.49007C236.1 7.49007 235.85 7.73009 235.85 8.04009C235.85 8.34009 236.09 8.59008 236.4 8.59008C236.7 8.58008 236.95 8.34009 236.95 8.04009Z" fill="url(#paint67_linear_1_150)"/>
<path d="M319.82 7.36006C319.82 6.91006 319.46 6.55006 319.01 6.55006C318.56 6.55006 318.2 6.91006 318.2 7.36006C318.2 7.81006 318.56 8.17009 319.01 8.17009C319.46 8.17009 319.82 7.81006 319.82 7.36006Z" fill="url(#paint68_linear_1_150)"/>
<path d="M67.09 95.7501C67.09 95.5901 66.96 95.4601 66.8 95.4601C66.64 95.4601 66.51 95.5901 66.51 95.7501C66.51 95.9101 66.64 96.0401 66.8 96.0401C66.96 96.0401 67.09 95.9101 67.09 95.7501Z" fill="url(#paint69_linear_1_150)"/>
<path d="M41.76 52.0401C41.76 51.0901 40.99 50.3101 40.03 50.3101C39.07 50.3101 38.3 51.0801 38.3 52.0401C38.3 52.9901 39.07 53.7701 40.03 53.7701C40.99 53.7701 41.76 52.9901 41.76 52.0401Z" fill="url(#paint70_linear_1_150)"/>
<path d="M198.48 85.5001C198.9 85.5001 199.24 85.8403 199.24 86.2601C199.24 86.6798 198.9 87.0201 198.48 87.0201C198.06 87.0201 197.72 86.6798 197.72 86.2601C197.72 85.8403 198.06 85.5001 198.48 85.5001Z" fill="url(#paint71_linear_1_150)"/>
<path d="M68.99 8.5001C70.2381 8.5001 71.25 9.51194 71.25 10.7601C71.25 12.0083 70.2381 13.0201 68.99 13.0201C67.7418 13.0201 66.73 12.0083 66.73 10.7601C66.73 9.51195 67.7418 8.5001 68.99 8.5001Z" fill="url(#paint72_linear_1_150)"/>
<path d="M149.49 10.1401C149.49 9.90011 149.29 9.7001 149.05 9.7001C148.81 9.7001 148.61 9.90011 148.61 10.1401C148.61 10.3801 148.81 10.5801 149.05 10.5801C149.3 10.5801 149.49 10.3801 149.49 10.1401Z" fill="url(#paint73_linear_1_150)"/>
<path d="M5.36 12.0301C5.36 11.6401 5.04 11.3201 4.65 11.3201C4.26 11.3201 3.94 11.6401 3.94 12.0301C3.94 12.4201 4.26 12.7401 4.65 12.7401C5.05 12.7401 5.36 12.4201 5.36 12.0301Z" fill="url(#paint74_linear_1_150)"/>
<path d="M5.04999 44.7501C5.04999 44.6001 4.91999 44.4701 4.76999 44.4701C4.61999 44.4701 4.48999 44.6001 4.48999 44.7501C4.48999 44.9101 4.61999 45.0301 4.76999 45.0301C4.91999 45.0301 5.04999 44.9001 5.04999 44.7501Z" fill="url(#paint75_linear_1_150)"/>
<path d="M19.95 85.8001C20.3145 85.8001 20.61 86.0956 20.61 86.4601C20.61 86.8246 20.3145 87.1201 19.95 87.1201C19.5855 87.1201 19.29 86.8246 19.29 86.4601C19.29 86.0956 19.5855 85.8001 19.95 85.8001Z" fill="url(#paint76_linear_1_150)"/>
<path d="M300.06 66.7801C300.06 66.1301 299.53 65.6001 298.88 65.6001C298.23 65.6001 297.7 66.1301 297.7 66.7801C297.7 67.4301 298.23 67.9601 298.88 67.9601C299.53 67.9601 300.06 67.4301 300.06 66.7801Z" fill="url(#paint77_linear_1_150)"/>
<path d="M69.09 124.07C69.09 123.4 68.54 122.85 67.87 122.85C67.2 122.85 66.65 123.4 66.65 124.07C66.65 124.74 67.2 125.29 67.87 125.29C68.55 125.29 69.09 124.75 69.09 124.07Z" fill="url(#paint78_linear_1_150)"/>
<path d="M167.83 48.6901C168.001 48.6901 168.14 48.8289 168.14 49.0001C168.14 49.1713 168.001 49.3101 167.83 49.3101C167.659 49.3101 167.52 49.1713 167.52 49.0001C167.52 48.8289 167.659 48.6901 167.83 48.6901Z" fill="url(#paint79_linear_1_150)"/>
<path d="M107.58 93.5601C107.58 93.3601 107.41 93.1901 107.21 93.1901C107.01 93.1901 106.84 93.3601 106.84 93.5601C106.84 93.7601 107.01 93.9301 107.21 93.9301C107.41 93.9301 107.58 93.7701 107.58 93.5601Z" fill="url(#paint80_linear_1_150)"/>
<path d="M99.46 7.92011C100.266 7.92011 100.92 8.57377 100.92 9.3801C100.92 10.1864 100.266 10.8401 99.46 10.8401C98.6537 10.8401 98 10.1864 98 9.3801C98 8.57377 98.6537 7.92011 99.46 7.92011Z" fill="url(#paint81_linear_1_150)"/>
<path d="M386.16 8.88008C386.315 8.88008 386.44 9.00544 386.44 9.16008C386.44 9.31472 386.315 9.44008 386.16 9.44008C386.005 9.44008 385.88 9.31472 385.88 9.16008C385.88 9.00544 386.005 8.88008 386.16 8.88008Z" fill="url(#paint82_linear_1_150)"/>
<path d="M152.87 119.41C153.831 119.41 154.61 120.189 154.61 121.15C154.61 122.111 153.831 122.89 152.87 122.89C151.909 122.89 151.13 122.111 151.13 121.15C151.13 120.189 151.909 119.41 152.87 119.41Z" fill="url(#paint83_linear_1_150)"/>
<path d="M10.37 105.04C10.37 103.99 9.52001 103.14 8.47001 103.14C7.42001 103.14 6.57001 103.99 6.57001 105.04C6.57001 106.09 7.42001 106.94 8.47001 106.94C9.52001 106.94 10.37 106.09 10.37 105.04Z" fill="url(#paint84_linear_1_150)"/>
<path d="M219.51 12.1301C219.736 12.1301 219.92 12.3137 219.92 12.5401C219.92 12.7665 219.736 12.9501 219.51 12.9501C219.284 12.9501 219.1 12.7665 219.1 12.5401C219.1 12.3137 219.284 12.1301 219.51 12.1301Z" fill="url(#paint85_linear_1_150)"/>
<path d="M298.01 15.1201C298.17 15.1201 298.3 15.2499 298.3 15.4101C298.3 15.5703 298.17 15.7001 298.01 15.7001C297.85 15.7001 297.72 15.5703 297.72 15.4101C297.72 15.2499 297.85 15.1201 298.01 15.1201Z" fill="url(#paint86_linear_1_150)"/>
</g>
<defs>
<linearGradient id="paint0_linear_1_150" x1="78.3289" y1="-14.6311" x2="141.203" y2="123.526" gradientUnits="userSpaceOnUse">
<stop stop-color="#415DFF"/>
<stop offset="0.5438" stop-color="#6665FF"/>
<stop offset="1" stop-color="#806AFF"/>
</linearGradient>
<linearGradient id="paint1_linear_1_150" x1="-3.47021" y1="35.6653" x2="59.4033" y2="173.822" gradientUnits="userSpaceOnUse">
<stop stop-color="#415DFF"/>
<stop offset="0.5438" stop-color="#6665FF"/>
<stop offset="1" stop-color="#806AFF"/>
</linearGradient>
<linearGradient id="paint2_linear_1_150" x1="51.9022" y1="10.4661" x2="114.776" y2="148.623" gradientUnits="userSpaceOnUse">
<stop stop-color="#415DFF"/>
<stop offset="0.5438" stop-color="#6665FF"/>
<stop offset="1" stop-color="#806AFF"/>
</linearGradient>
<linearGradient id="paint3_linear_1_150" x1="72.7801" y1="0.964103" x2="135.654" y2="139.121" gradientUnits="userSpaceOnUse">
<stop stop-color="#415DFF"/>
<stop offset="0.5438" stop-color="#6665FF"/>
<stop offset="1" stop-color="#806AFF"/>
</linearGradient>
<linearGradient id="paint4_linear_1_150" x1="22.419" y1="23.883" x2="85.2928" y2="162.04" gradientUnits="userSpaceOnUse">
<stop stop-color="#415DFF"/>
<stop offset="0.5438" stop-color="#6665FF"/>
<stop offset="1" stop-color="#806AFF"/>
</linearGradient>
<linearGradient id="paint5_linear_1_150" x1="292.099" y1="-98.8462" x2="354.973" y2="39.3113" gradientUnits="userSpaceOnUse">
<stop stop-color="#415DFF"/>
<stop offset="0.5438" stop-color="#6665FF"/>
<stop offset="1" stop-color="#806AFF"/>
</linearGradient>
<linearGradient id="paint6_linear_1_150" x1="49.6727" y1="11.4799" x2="112.547" y2="149.637" gradientUnits="userSpaceOnUse">
<stop stop-color="#415DFF"/>
<stop offset="0.5438" stop-color="#6665FF"/>
<stop offset="1" stop-color="#806AFF"/>
</linearGradient>
<linearGradient id="paint7_linear_1_150" x1="169.326" y1="-42.9728" x2="232.2" y2="95.1839" gradientUnits="userSpaceOnUse">
<stop stop-color="#415DFF"/>
<stop offset="0.5438" stop-color="#6665FF"/>
<stop offset="1" stop-color="#806AFF"/>
</linearGradient>
<linearGradient id="paint8_linear_1_150" x1="219.076" y1="-65.6137" x2="281.949" y2="72.5433" gradientUnits="userSpaceOnUse">
<stop stop-color="#415DFF"/>
<stop offset="0.5438" stop-color="#6665FF"/>
<stop offset="1" stop-color="#806AFF"/>
</linearGradient>
<linearGradient id="paint9_linear_1_150" x1="42.9774" y1="14.5272" x2="105.851" y2="152.684" gradientUnits="userSpaceOnUse">
<stop stop-color="#415DFF"/>
<stop offset="0.5438" stop-color="#6665FF"/>
<stop offset="1" stop-color="#806AFF"/>
</linearGradient>
<linearGradient id="paint10_linear_1_150" x1="222.693" y1="-67.2595" x2="285.567" y2="70.8981" gradientUnits="userSpaceOnUse">
<stop stop-color="#415DFF"/>
<stop offset="0.5438" stop-color="#6665FF"/>
<stop offset="1" stop-color="#806AFF"/>
</linearGradient>
<linearGradient id="paint11_linear_1_150" x1="113.872" y1="-17.7364" x2="176.746" y2="120.421" gradientUnits="userSpaceOnUse">
<stop stop-color="#415DFF"/>
<stop offset="0.5438" stop-color="#6665FF"/>
<stop offset="1" stop-color="#806AFF"/>
</linearGradient>
<linearGradient id="paint12_linear_1_150" x1="209.67" y1="-66.3798" x2="272.544" y2="71.7774" gradientUnits="userSpaceOnUse">
<stop stop-color="#415DFF"/>
<stop offset="0.5438" stop-color="#6665FF"/>
<stop offset="1" stop-color="#806AFF"/>
</linearGradient>
<linearGradient id="paint13_linear_1_150" x1="130.797" y1="-25.4386" x2="193.67" y2="112.718" gradientUnits="userSpaceOnUse">
<stop stop-color="#415DFF"/>
<stop offset="0.5438" stop-color="#6665FF"/>
<stop offset="1" stop-color="#806AFF"/>
</linearGradient>
<linearGradient id="paint14_linear_1_150" x1="160.14" y1="-38.7923" x2="223.014" y2="99.3645" gradientUnits="userSpaceOnUse">
<stop stop-color="#415DFF"/>
<stop offset="0.5438" stop-color="#6665FF"/>
<stop offset="1" stop-color="#806AFF"/>
</linearGradient>
<linearGradient id="paint15_linear_1_150" x1="184.9" y1="-50.0607" x2="247.774" y2="88.0964" gradientUnits="userSpaceOnUse">
<stop stop-color="#415DFF"/>
<stop offset="0.5438" stop-color="#6665FF"/>
<stop offset="1" stop-color="#806AFF"/>
</linearGradient>
<linearGradient id="paint16_linear_1_150" x1="35.8863" y1="17.7543" x2="98.7602" y2="155.911" gradientUnits="userSpaceOnUse">
<stop stop-color="#415DFF"/>
<stop offset="0.5438" stop-color="#6665FF"/>
<stop offset="1" stop-color="#806AFF"/>
</linearGradient>
<linearGradient id="paint17_linear_1_150" x1="142.579" y1="-30.8005" x2="205.453" y2="107.356" gradientUnits="userSpaceOnUse">
<stop stop-color="#415DFF"/>
<stop offset="0.5438" stop-color="#6665FF"/>
<stop offset="1" stop-color="#806AFF"/>
</linearGradient>
<linearGradient id="paint18_linear_1_150" x1="104.166" y1="-13.3188" x2="167.04" y2="124.838" gradientUnits="userSpaceOnUse">
<stop stop-color="#415DFF"/>
<stop offset="0.5438" stop-color="#6665FF"/>
<stop offset="1" stop-color="#806AFF"/>
</linearGradient>
<linearGradient id="paint19_linear_1_150" x1="94.2649" y1="-8.81335" x2="157.139" y2="129.344" gradientUnits="userSpaceOnUse">
<stop stop-color="#415DFF"/>
<stop offset="0.5438" stop-color="#6665FF"/>
<stop offset="1" stop-color="#806AFF"/>
</linearGradient>
<linearGradient id="paint20_linear_1_150" x1="-8.4707" y1="37.9405" x2="54.4032" y2="176.098" gradientUnits="userSpaceOnUse">
<stop stop-color="#415DFF"/>
<stop offset="0.5438" stop-color="#6665FF"/>
<stop offset="1" stop-color="#806AFF"/>
</linearGradient>
<linearGradient id="paint21_linear_1_150" x1="36.4985" y1="17.4766" x2="99.3721" y2="155.633" gradientUnits="userSpaceOnUse">
<stop stop-color="#415DFF"/>
<stop offset="0.5438" stop-color="#6665FF"/>
<stop offset="1" stop-color="#806AFF"/>
</linearGradient>
<linearGradient id="paint22_linear_1_150" x1="48.2285" y1="12.1375" x2="111.102" y2="150.295" gradientUnits="userSpaceOnUse">
<stop stop-color="#415DFF"/>
<stop offset="0.5438" stop-color="#6665FF"/>
<stop offset="1" stop-color="#806AFF"/>
</linearGradient>
<linearGradient id="paint23_linear_1_150" x1="152.337" y1="-35.242" x2="215.212" y2="102.917" gradientUnits="userSpaceOnUse">
<stop stop-color="#415DFF"/>
<stop offset="0.5438" stop-color="#6665FF"/>
<stop offset="1" stop-color="#806AFF"/>
</linearGradient>
<linearGradient id="paint24_linear_1_150" x1="115.421" y1="-18.4412" x2="178.294" y2="119.716" gradientUnits="userSpaceOnUse">
<stop stop-color="#415DFF"/>
<stop offset="0.5438" stop-color="#6665FF"/>
<stop offset="1" stop-color="#806AFF"/>
</linearGradient>
<linearGradient id="paint25_linear_1_150" x1="175.94" y1="-45.9836" x2="238.814" y2="92.1739" gradientUnits="userSpaceOnUse">
<stop stop-color="#415DFF"/>
<stop offset="0.5438" stop-color="#6665FF"/>
<stop offset="1" stop-color="#806AFF"/>
</linearGradient>
<linearGradient id="paint26_linear_1_150" x1="6.77848" y1="31.001" x2="69.6524" y2="169.158" gradientUnits="userSpaceOnUse">
<stop stop-color="#415DFF"/>
<stop offset="0.5438" stop-color="#6665FF"/>
<stop offset="1" stop-color="#806AFF"/>
</linearGradient>
<linearGradient id="paint27_linear_1_150" x1="156.473" y1="-37.1233" x2="219.347" y2="101.033" gradientUnits="userSpaceOnUse">
<stop stop-color="#415DFF"/>
<stop offset="0.5438" stop-color="#6665FF"/>
<stop offset="1" stop-color="#806AFF"/>
</linearGradient>
<linearGradient id="paint28_linear_1_150" x1="232.757" y1="-71.8394" x2="295.63" y2="66.3174" gradientUnits="userSpaceOnUse">
<stop stop-color="#415DFF"/>
<stop offset="0.5438" stop-color="#6665FF"/>
<stop offset="1" stop-color="#806AFF"/>
</linearGradient>
<linearGradient id="paint29_linear_1_150" x1="237.045" y1="-73.7925" x2="299.92" y2="64.3659" gradientUnits="userSpaceOnUse">
<stop stop-color="#415DFF"/>
<stop offset="0.5438" stop-color="#6665FF"/>
<stop offset="1" stop-color="#806AFF"/>
</linearGradient>
<linearGradient id="paint30_linear_1_150" x1="250.977" y1="-80.1315" x2="313.851" y2="58.0257" gradientUnits="userSpaceOnUse">
<stop stop-color="#415DFF"/>
<stop offset="0.5438" stop-color="#6665FF"/>
<stop offset="1" stop-color="#806AFF"/>
</linearGradient>
<linearGradient id="paint31_linear_1_150" x1="21.9985" y1="24.0742" x2="84.8725" y2="162.231" gradientUnits="userSpaceOnUse">
<stop stop-color="#415DFF"/>
<stop offset="0.5438" stop-color="#6665FF"/>
<stop offset="1" stop-color="#806AFF"/>
</linearGradient>
<linearGradient id="paint32_linear_1_150" x1="-25.658" y1="45.7623" x2="37.216" y2="183.92" gradientUnits="userSpaceOnUse">
<stop stop-color="#415DFF"/>
<stop offset="0.5438" stop-color="#6665FF"/>
<stop offset="1" stop-color="#806AFF"/>
</linearGradient>
<linearGradient id="paint33_linear_1_150" x1="60.4836" y1="6.56046" x2="123.357" y2="144.717" gradientUnits="userSpaceOnUse">
<stop stop-color="#415DFF"/>
<stop offset="0.5438" stop-color="#6665FF"/>
<stop offset="1" stop-color="#806AFF"/>
</linearGradient>
<linearGradient id="paint34_linear_1_150" x1="191.503" y1="-53.0645" x2="254.376" y2="85.0918" gradientUnits="userSpaceOnUse">
<stop stop-color="#415DFF"/>
<stop offset="0.5438" stop-color="#6665FF"/>
<stop offset="1" stop-color="#806AFF"/>
</linearGradient>
<linearGradient id="paint35_linear_1_150" x1="96.1558" y1="-9.67396" x2="159.03" y2="128.483" gradientUnits="userSpaceOnUse">
<stop stop-color="#415DFF"/>
<stop offset="0.5438" stop-color="#6665FF"/>
<stop offset="1" stop-color="#806AFF"/>
</linearGradient>
<linearGradient id="paint36_linear_1_150" x1="230.224" y1="-66.4973" x2="293.098" y2="71.6597" gradientUnits="userSpaceOnUse">
<stop stop-color="#415DFF"/>
<stop offset="0.5438" stop-color="#6665FF"/>
<stop offset="1" stop-color="#806AFF"/>
</linearGradient>
<linearGradient id="paint37_linear_1_150" x1="116.795" y1="-19.0663" x2="179.668" y2="119.09" gradientUnits="userSpaceOnUse">
<stop stop-color="#415DFF"/>
<stop offset="0.5438" stop-color="#6665FF"/>
<stop offset="1" stop-color="#806AFF"/>
</linearGradient>
<linearGradient id="paint38_linear_1_150" x1="15.3257" y1="27.1113" x2="78.1993" y2="165.268" gradientUnits="userSpaceOnUse">
<stop stop-color="#415DFF"/>
<stop offset="0.5438" stop-color="#6665FF"/>
<stop offset="1" stop-color="#806AFF"/>
</linearGradient>
<linearGradient id="paint39_linear_1_150" x1="106.159" y1="-14.2263" x2="169.033" y2="123.932" gradientUnits="userSpaceOnUse">
<stop stop-color="#415DFF"/>
<stop offset="0.5438" stop-color="#6665FF"/>
<stop offset="1" stop-color="#806AFF"/>
</linearGradient>
<linearGradient id="paint40_linear_1_150" x1="66.7811" y1="3.69552" x2="129.654" y2="141.852" gradientUnits="userSpaceOnUse">
<stop stop-color="#415DFF"/>
<stop offset="0.5438" stop-color="#6665FF"/>
<stop offset="1" stop-color="#806AFF"/>
</linearGradient>
<linearGradient id="paint41_linear_1_150" x1="44.8369" y1="13.6809" x2="107.711" y2="151.838" gradientUnits="userSpaceOnUse">
<stop stop-color="#415DFF"/>
<stop offset="0.5438" stop-color="#6665FF"/>
<stop offset="1" stop-color="#806AFF"/>
</linearGradient>
<linearGradient id="paint42_linear_1_150" x1="61.1074" y1="6.27612" x2="123.981" y2="144.434" gradientUnits="userSpaceOnUse">
<stop stop-color="#415DFF"/>
<stop offset="0.5438" stop-color="#6665FF"/>
<stop offset="1" stop-color="#806AFF"/>
</linearGradient>
<linearGradient id="paint43_linear_1_150" x1="218.941" y1="-65.5526" x2="281.815" y2="72.6051" gradientUnits="userSpaceOnUse">
<stop stop-color="#415DFF"/>
<stop offset="0.5438" stop-color="#6665FF"/>
<stop offset="1" stop-color="#806AFF"/>
</linearGradient>
<linearGradient id="paint44_linear_1_150" x1="259.919" y1="-96.2934" x2="322.793" y2="41.8636" gradientUnits="userSpaceOnUse">
<stop stop-color="#415DFF"/>
<stop offset="0.5438" stop-color="#6665FF"/>
<stop offset="1" stop-color="#806AFF"/>
</linearGradient>
<linearGradient id="paint45_linear_1_150" x1="13.1585" y1="28.0974" x2="76.0325" y2="166.255" gradientUnits="userSpaceOnUse">
<stop stop-color="#415DFF"/>
<stop offset="0.5438" stop-color="#6665FF"/>
<stop offset="1" stop-color="#806AFF"/>
</linearGradient>
<linearGradient id="paint46_linear_1_150" x1="76.5212" y1="-0.738605" x2="139.396" y2="137.42" gradientUnits="userSpaceOnUse">
<stop stop-color="#415DFF"/>
<stop offset="0.5438" stop-color="#6665FF"/>
<stop offset="1" stop-color="#806AFF"/>
</linearGradient>
<linearGradient id="paint47_linear_1_150" x1="6.59907" y1="31.0833" x2="69.4723" y2="169.239" gradientUnits="userSpaceOnUse">
<stop stop-color="#415DFF"/>
<stop offset="0.5438" stop-color="#6665FF"/>
<stop offset="1" stop-color="#806AFF"/>
</linearGradient>
<linearGradient id="paint48_linear_1_150" x1="173.696" y1="-44.9621" x2="236.57" y2="93.1961" gradientUnits="userSpaceOnUse">
<stop stop-color="#415DFF"/>
<stop offset="0.5438" stop-color="#6665FF"/>
<stop offset="1" stop-color="#806AFF"/>
</linearGradient>
<linearGradient id="paint49_linear_1_150" x1="147.196" y1="-32.9013" x2="210.069" y2="105.256" gradientUnits="userSpaceOnUse">
<stop stop-color="#415DFF"/>
<stop offset="0.5438" stop-color="#6665FF"/>
<stop offset="1" stop-color="#806AFF"/>
</linearGradient>
<linearGradient id="paint50_linear_1_150" x1="-9.4602" y1="38.391" x2="53.4135" y2="176.548" gradientUnits="userSpaceOnUse">
<stop stop-color="#415DFF"/>
<stop offset="0.5438" stop-color="#6665FF"/>
<stop offset="1" stop-color="#806AFF"/>
</linearGradient>
<linearGradient id="paint51_linear_1_150" x1="26.0477" y1="22.2317" x2="88.9221" y2="160.39" gradientUnits="userSpaceOnUse">
<stop stop-color="#415DFF"/>
<stop offset="0.5438" stop-color="#6665FF"/>
<stop offset="1" stop-color="#806AFF"/>
</linearGradient>
<linearGradient id="paint52_linear_1_150" x1="129.369" y1="-24.789" x2="192.243" y2="113.368" gradientUnits="userSpaceOnUse">
<stop stop-color="#415DFF"/>
<stop offset="0.5438" stop-color="#6665FF"/>
<stop offset="1" stop-color="#806AFF"/>
</linearGradient>
<linearGradient id="paint53_linear_1_150" x1="310.977" y1="-107.437" x2="373.851" y2="30.7201" gradientUnits="userSpaceOnUse">
<stop stop-color="#415DFF"/>
<stop offset="0.5438" stop-color="#6665FF"/>
<stop offset="1" stop-color="#806AFF"/>
</linearGradient>
<linearGradient id="paint54_linear_1_150" x1="82.5806" y1="-3.49612" x2="145.455" y2="134.661" gradientUnits="userSpaceOnUse">
<stop stop-color="#415DFF"/>
<stop offset="0.5438" stop-color="#6665FF"/>
<stop offset="1" stop-color="#806AFF"/>
</linearGradient>
<linearGradient id="paint55_linear_1_150" x1="124.499" y1="-22.5722" x2="187.373" y2="115.584" gradientUnits="userSpaceOnUse">
<stop stop-color="#415DFF"/>
<stop offset="0.5438" stop-color="#6665FF"/>
<stop offset="1" stop-color="#806AFF"/>
</linearGradient>
<linearGradient id="paint56_linear_1_150" x1="109.443" y1="-15.7208" x2="172.317" y2="122.437" gradientUnits="userSpaceOnUse">
<stop stop-color="#415DFF"/>
<stop offset="0.5438" stop-color="#6665FF"/>
<stop offset="1" stop-color="#806AFF"/>
</linearGradient>
<linearGradient id="paint57_linear_1_150" x1="167.025" y1="-41.9254" x2="229.899" y2="96.2315" gradientUnits="userSpaceOnUse">
<stop stop-color="#415DFF"/>
<stop offset="0.5438" stop-color="#6665FF"/>
<stop offset="1" stop-color="#806AFF"/>
</linearGradient>
<linearGradient id="paint58_linear_1_150" x1="271.827" y1="-89.6193" x2="334.701" y2="48.5369" gradientUnits="userSpaceOnUse">
<stop stop-color="#415DFF"/>
<stop offset="0.5438" stop-color="#6665FF"/>
<stop offset="1" stop-color="#806AFF"/>
</linearGradient>
<linearGradient id="paint59_linear_1_150" x1="104.514" y1="-13.4704" x2="167.385" y2="124.681" gradientUnits="userSpaceOnUse">
<stop stop-color="#415DFF"/>
<stop offset="0.5438" stop-color="#6665FF"/>
<stop offset="1" stop-color="#806AFF"/>
</linearGradient>
<linearGradient id="paint60_linear_1_150" x1="79.7707" y1="-2.21778" x2="142.645" y2="135.94" gradientUnits="userSpaceOnUse">
<stop stop-color="#415DFF"/>
<stop offset="0.5438" stop-color="#6665FF"/>
<stop offset="1" stop-color="#806AFF"/>
</linearGradient>
<linearGradient id="paint61_linear_1_150" x1="43.2219" y1="14.4158" x2="106.095" y2="152.572" gradientUnits="userSpaceOnUse">
<stop stop-color="#415DFF"/>
<stop offset="0.5438" stop-color="#6665FF"/>
<stop offset="1" stop-color="#806AFF"/>
</linearGradient>
<linearGradient id="paint62_linear_1_150" x1="294.553" y1="-99.9579" x2="357.427" y2="38.1945" gradientUnits="userSpaceOnUse">
<stop stop-color="#415DFF"/>
<stop offset="0.5438" stop-color="#6665FF"/>
<stop offset="1" stop-color="#806AFF"/>
</linearGradient>
<linearGradient id="paint63_linear_1_150" x1="202.924" y1="-58.2631" x2="265.798" y2="79.8945" gradientUnits="userSpaceOnUse">
<stop stop-color="#415DFF"/>
<stop offset="0.5438" stop-color="#6665FF"/>
<stop offset="1" stop-color="#806AFF"/>
</linearGradient>
<linearGradient id="paint64_linear_1_150" x1="152.818" y1="-35.4607" x2="215.691" y2="102.697" gradientUnits="userSpaceOnUse">
<stop stop-color="#415DFF"/>
<stop offset="0.5438" stop-color="#6665FF"/>
<stop offset="1" stop-color="#806AFF"/>
</linearGradient>
<linearGradient id="paint65_linear_1_150" x1="268.474" y1="-88.0939" x2="331.351" y2="50.0616" gradientUnits="userSpaceOnUse">
<stop stop-color="#415DFF"/>
<stop offset="0.5438" stop-color="#6665FF"/>
<stop offset="1" stop-color="#806AFF"/>
</linearGradient>
<linearGradient id="paint66_linear_1_150" x1="12.3008" y1="28.4877" x2="75.1734" y2="166.643" gradientUnits="userSpaceOnUse">
<stop stop-color="#415DFF"/>
<stop offset="0.5438" stop-color="#6665FF"/>
<stop offset="1" stop-color="#806AFF"/>
</linearGradient>
<linearGradient id="paint67_linear_1_150" x1="205.664" y1="-59.5053" x2="268.535" y2="78.6438" gradientUnits="userSpaceOnUse">
<stop stop-color="#415DFF"/>
<stop offset="0.5438" stop-color="#6665FF"/>
<stop offset="1" stop-color="#806AFF"/>
</linearGradient>
<linearGradient id="paint68_linear_1_150" x1="274.353" y1="-90.7716" x2="337.229" y2="47.3875" gradientUnits="userSpaceOnUse">
<stop stop-color="#415DFF"/>
<stop offset="0.5438" stop-color="#6665FF"/>
<stop offset="1" stop-color="#806AFF"/>
</linearGradient>
<linearGradient id="paint69_linear_1_150" x1="32.086" y1="19.478" x2="94.9631" y2="157.644" gradientUnits="userSpaceOnUse">
<stop stop-color="#415DFF"/>
<stop offset="0.5438" stop-color="#6665FF"/>
<stop offset="1" stop-color="#806AFF"/>
</linearGradient>
<linearGradient id="paint70_linear_1_150" x1="26.3974" y1="22.0728" x2="89.2708" y2="160.229" gradientUnits="userSpaceOnUse">
<stop stop-color="#415DFF"/>
<stop offset="0.5438" stop-color="#6665FF"/>
<stop offset="1" stop-color="#806AFF"/>
</linearGradient>
<linearGradient id="paint71_linear_1_150" x1="144.76" y1="-31.7893" x2="207.633" y2="106.364" gradientUnits="userSpaceOnUse">
<stop stop-color="#415DFF"/>
<stop offset="0.5438" stop-color="#6665FF"/>
<stop offset="1" stop-color="#806AFF"/>
</linearGradient>
<linearGradient id="paint72_linear_1_150" x1="65.948" y1="4.07331" x2="128.822" y2="142.23" gradientUnits="userSpaceOnUse">
<stop stop-color="#415DFF"/>
<stop offset="0.5438" stop-color="#6665FF"/>
<stop offset="1" stop-color="#806AFF"/>
</linearGradient>
<linearGradient id="paint73_linear_1_150" x1="132.506" y1="-26.2147" x2="195.376" y2="111.937" gradientUnits="userSpaceOnUse">
<stop stop-color="#415DFF"/>
<stop offset="0.5438" stop-color="#6665FF"/>
<stop offset="1" stop-color="#806AFF"/>
</linearGradient>
<linearGradient id="paint74_linear_1_150" x1="12.1709" y1="28.5473" x2="75.0456" y2="166.708" gradientUnits="userSpaceOnUse">
<stop stop-color="#415DFF"/>
<stop offset="0.5438" stop-color="#6665FF"/>
<stop offset="1" stop-color="#806AFF"/>
</linearGradient>
<linearGradient id="paint75_linear_1_150" x1="-0.0678126" y1="34.1163" x2="62.8071" y2="172.276" gradientUnits="userSpaceOnUse">
<stop stop-color="#415DFF"/>
<stop offset="0.5438" stop-color="#6665FF"/>
<stop offset="1" stop-color="#806AFF"/>
</linearGradient>
<linearGradient id="paint76_linear_1_150" x1="-3.22202" y1="35.5514" x2="59.6521" y2="173.71" gradientUnits="userSpaceOnUse">
<stop stop-color="#415DFF"/>
<stop offset="0.5438" stop-color="#6665FF"/>
<stop offset="1" stop-color="#806AFF"/>
</linearGradient>
<linearGradient id="paint77_linear_1_150" x1="235.269" y1="-72.9818" x2="298.143" y2="65.1745" gradientUnits="userSpaceOnUse">
<stop stop-color="#415DFF"/>
<stop offset="0.5438" stop-color="#6665FF"/>
<stop offset="1" stop-color="#806AFF"/>
</linearGradient>
<linearGradient id="paint78_linear_1_150" x1="22.3014" y1="23.9379" x2="85.1744" y2="162.093" gradientUnits="userSpaceOnUse">
<stop stop-color="#415DFF"/>
<stop offset="0.5438" stop-color="#6665FF"/>
<stop offset="1" stop-color="#806AFF"/>
</linearGradient>
<linearGradient id="paint79_linear_1_150" x1="133.411" y1="-26.6299" x2="196.286" y2="111.529" gradientUnits="userSpaceOnUse">
<stop stop-color="#415DFF"/>
<stop offset="0.5438" stop-color="#6665FF"/>
<stop offset="1" stop-color="#806AFF"/>
</linearGradient>
<linearGradient id="paint80_linear_1_150" x1="66.3885" y1="3.87067" x2="129.263" y2="142.031" gradientUnits="userSpaceOnUse">
<stop stop-color="#415DFF"/>
<stop offset="0.5438" stop-color="#6665FF"/>
<stop offset="1" stop-color="#806AFF"/>
</linearGradient>
<linearGradient id="paint81_linear_1_150" x1="91.714" y1="-7.65249" x2="154.588" y2="130.505" gradientUnits="userSpaceOnUse">
<stop stop-color="#415DFF"/>
<stop offset="0.5438" stop-color="#6665FF"/>
<stop offset="1" stop-color="#806AFF"/>
</linearGradient>
<linearGradient id="paint82_linear_1_150" x1="329.303" y1="-115.778" x2="392.178" y2="22.3801" gradientUnits="userSpaceOnUse">
<stop stop-color="#415DFF"/>
<stop offset="0.5438" stop-color="#6665FF"/>
<stop offset="1" stop-color="#806AFF"/>
</linearGradient>
<linearGradient id="paint83_linear_1_150" x1="93.821" y1="-8.61103" x2="156.695" y2="129.546" gradientUnits="userSpaceOnUse">
<stop stop-color="#415DFF"/>
<stop offset="0.5438" stop-color="#6665FF"/>
<stop offset="1" stop-color="#806AFF"/>
</linearGradient>
<linearGradient id="paint84_linear_1_150" x1="-19.7338" y1="43.0674" x2="43.1394" y2="181.223" gradientUnits="userSpaceOnUse">
<stop stop-color="#415DFF"/>
<stop offset="0.5438" stop-color="#6665FF"/>
<stop offset="1" stop-color="#806AFF"/>
</linearGradient>
<linearGradient id="paint85_linear_1_150" x1="189.974" y1="-52.3657" x2="252.846" y2="85.7841" gradientUnits="userSpaceOnUse">
<stop stop-color="#415DFF"/>
<stop offset="0.5438" stop-color="#6665FF"/>
<stop offset="1" stop-color="#806AFF"/>
</linearGradient>
<linearGradient id="paint86_linear_1_150" x1="253.915" y1="-81.4753" x2="316.795" y2="56.6887" gradientUnits="userSpaceOnUse">
<stop stop-color="#415DFF"/>
<stop offset="0.5438" stop-color="#6665FF"/>
<stop offset="1" stop-color="#806AFF"/>
</linearGradient>
</defs>
</svg>
