<svg width="387" height="142" viewBox="0 0 387 142" fill="none" xmlns="http://www.w3.org/2000/svg">
<g style="mix-blend-mode:color-dodge" opacity="0.2">
<path d="M110.69 51.1099L87.56 51.1099L76 31.0799L87.56 11.0399L110.69 11.0399L122.26 31.0799L110.69 51.1099Z" fill="url(#paint0_linear_1_9)"/>
<path d="M40.25 131.01L37.09 131.01L35.5 128.26L37.09 125.52L40.25 125.52L41.84 128.26L40.25 131.01Z" fill="url(#paint1_linear_1_9)"/>
<path d="M106.99 130.75L103.65 130.75L101.98 127.85L103.65 124.95L106.99 124.95L108.67 127.85L106.99 130.75Z" fill="url(#paint2_linear_1_9)"/>
<path d="M117.74 95.1199L97.76 95.1199L87.77 77.8099L97.76 60.4999L117.74 60.4999L127.74 77.8099L117.74 95.1199Z" fill="url(#paint3_linear_1_9)"/>
<path d="M39.8 56.3298L15.08 56.3298L2.71997 34.9199L15.08 13.5099L39.8 13.5099L52.16 34.9199L39.8 56.3298Z" fill="url(#paint4_linear_1_9)"/>
<path d="M345.23 17.1798L342.11 17.1798L340.55 14.4798L342.11 11.7798L345.23 11.7798L346.79 14.4798L345.23 17.1798Z" fill="url(#paint5_linear_1_9)"/>
<path d="M98.79 117.83L92.03 117.83L88.65 111.97L92.03 106.12L98.79 106.12L102.17 111.97L98.79 117.83Z" fill="url(#paint6_linear_1_9)"/>
<path d="M197.85 18.1098L190.99 18.1098L187.55 12.1598L190.99 6.21982L197.85 6.21982L201.28 12.1598L197.85 18.1098Z" fill="url(#paint7_linear_1_9)"/>
<path d="M280.48 68.0898L275.21 68.0898L272.57 63.5199L275.21 58.9598L280.48 58.9598L283.12 63.5199L280.48 68.0898Z" fill="url(#paint8_linear_1_9)"/>
<path d="M56.9 42.5099L45.69 42.5099L40.09 32.8099L45.69 23.0999L56.9 23.0999L62.51 32.8099L56.9 42.5099Z" fill="url(#paint9_linear_1_9)"/>
<path d="M274.95 46.8499L271.87 46.8499L270.33 44.1798L271.87 41.5099L274.95 41.5099L276.49 44.1798L274.95 46.8499Z" fill="url(#paint10_linear_1_9)"/>
<path d="M175.16 116.1L171.59 116.1L169.81 113.01L171.59 109.92L175.16 109.92L176.94 113.01L175.16 116.1Z" fill="url(#paint11_linear_1_9)"/>
<path d="M255.94 31.1099L237.98 31.1099L229 15.5499L237.98 -0.000122855L255.94 -0.000124425L264.92 15.5499L255.94 31.1099Z" fill="url(#paint12_linear_1_9)"/>
<path d="M169.85 54.3499L143.92 54.3499L130.95 31.8899L143.92 9.41986L169.85 9.41986L182.82 31.8899L169.85 54.3499Z" fill="url(#paint13_linear_1_9)"/>
<path d="M218.51 87.2299L208.86 87.2299L204.03 78.8699L208.86 70.4999L218.51 70.4999L223.34 78.8699L218.51 87.2299Z" fill="url(#paint14_linear_1_9)"/>
<path d="M237.8 60.7899L214.63 60.7899L203.04 40.7198L214.63 20.6599L237.8 20.6598L249.39 40.7198L237.8 60.7899Z" fill="url(#paint15_linear_1_9)"/>
<path d="M60.77 71.3998L56.29 71.3998L54.04 67.5098L56.29 63.6198L60.77 63.6198L63.02 67.5098L60.77 71.3998Z" fill="url(#paint16_linear_1_9)"/>
<path d="M189.09 68.8099L177.94 68.8099L172.36 59.1499L177.94 49.4899L189.09 49.4899L194.67 59.1499L189.09 68.8099Z" fill="url(#paint17_linear_1_9)"/>
<path d="M149.63 84.9498L142.63 84.9498L139.13 78.8898L142.63 72.8298L149.63 72.8298L153.12 78.8898L149.63 84.9498Z" fill="url(#paint18_linear_1_9)"/>
<path d="M114.27 33.2599L106.19 33.2599L102.15 26.2699L106.19 19.2699L114.27 19.2699L118.31 26.2699L114.27 33.2599Z" fill="url(#paint19_linear_1_9)"/>
<path d="M41.15 141.11L15.93 141.11L3.32001 119.27L15.93 97.4299L41.15 97.4299L53.76 119.27L41.15 141.11Z" fill="url(#paint20_linear_1_9)"/>
<path d="M88.4 130.68L84.75 130.68L82.92 127.51L84.75 124.35L88.4 124.35L90.23 127.51L88.4 130.68Z" fill="url(#paint21_linear_1_9)"/>
<path d="M88.34 95.1699L66.37 95.1699L55.39 76.1399L66.37 57.1199L88.34 57.1199L99.33 76.1399L88.34 95.1699Z" fill="url(#paint22_linear_1_9)"/>
<path d="M173.57 10.7198L170.6 10.7198L169.11 8.14984L170.6 5.56985L173.57 5.56985L175.06 8.14984L173.57 10.7198Z" fill="url(#paint23_linear_1_9)"/>
<path d="M149.82 56.1799L145.69 56.1799L143.62 52.5999L145.69 49.0299L149.82 49.0299L151.88 52.5999L149.82 56.1799Z" fill="url(#paint24_linear_1_9)"/>
<path d="M210.61 29.4099L207.24 29.4099L205.55 26.4998L207.24 23.5798L210.61 23.5798L212.29 26.4998L210.61 29.4099Z" fill="url(#paint25_linear_1_9)"/>
<path d="M20.37 59.4698L14.35 59.4698L11.35 54.2599L14.35 49.0498L20.37 49.0498L23.38 54.2599L20.37 59.4698Z" fill="url(#paint26_linear_1_9)"/>
<path d="M196.04 46.9298L183.64 46.9298L177.44 36.1898L183.64 25.4498L196.04 25.4498L202.24 36.1898L196.04 46.9298Z" fill="url(#paint27_linear_1_9)"/>
<path d="M282.08 33.7498L270.09 33.7498L264.1 23.3698L270.09 12.9898L282.08 12.9898L288.07 23.3698L282.08 33.7498Z" fill="url(#paint28_linear_1_9)"/>
<path d="M275.86 10.7998L272.87 10.7998L271.38 8.20981L272.87 5.61981L275.86 5.61981L277.35 8.20981L275.86 10.7998Z" fill="url(#paint29_linear_1_9)"/>
<path d="M311.8 52.3898L306.92 52.3898L304.47 48.1598L306.92 43.9298L311.8 43.9298L314.24 48.1598L311.8 52.3898Z" fill="url(#paint30_linear_1_9)"/>
<path d="M53.74 91.9199L45.57 91.9199L41.49 84.8499L45.57 77.7699L53.74 77.7699L57.82 84.8499L53.74 91.9199Z" fill="url(#paint31_linear_1_9)"/>
<path d="M16.43 135.84L6.08998 135.84L0.919982 126.89L6.08998 117.93L16.43 117.93L21.6 126.89L16.43 135.84Z" fill="url(#paint32_linear_1_9)"/>
<path d="M75.1 37.3599L69.42 37.3599L66.57 32.4399L69.42 27.5099L75.1 27.5099L77.94 32.4399L75.1 37.3599Z" fill="url(#paint33_linear_1_9)"/>
<path d="M243.35 59.6698L245.92 55.2098L243.35 50.7498L238.2 50.7498L235.63 55.2098L238.2 59.6698L243.35 59.6698ZM243.54 59.9998L238 59.9998L235.23 55.2098L238 50.4198L243.54 50.4198L246.31 55.2098L243.54 59.9998Z" fill="url(#paint34_linear_1_9)"/>
<path d="M131.17 65.7699L134.4 60.1699L131.17 54.5699L124.7 54.5699L121.47 60.1699L124.7 65.7699L131.17 65.7699ZM131.42 66.1899L124.47 66.1899L120.99 60.1699L124.47 54.1499L131.42 54.1499L134.9 60.1699L131.42 66.1899Z" fill="url(#paint35_linear_1_9)"/>
<path d="M287.9 54.4998L300.25 33.1098L287.9 11.7198L263.2 11.7198L250.85 33.1098L263.2 54.4998L287.9 54.4998ZM288.83 56.1098L262.28 56.1098L249 33.1098L262.28 10.1098L288.83 10.1098L302.11 33.1098L288.83 56.1098Z" fill="url(#paint36_linear_1_9)"/>
<path d="M140.43 30.5099L145.49 21.7398L140.43 12.9698L130.3 12.9698L125.24 21.7398L130.3 30.5099L140.43 30.5099ZM140.81 31.1699L129.92 31.1699L124.48 21.7398L129.92 12.3098L140.81 12.3098L146.25 21.7398L140.81 31.1699Z" fill="url(#paint37_linear_1_9)"/>
<path d="M56.38 116.09L59.01 111.53L56.38 106.97L51.12 106.97L48.49 111.53L51.12 116.09L56.38 116.09ZM56.57 116.43L50.91 116.43L48.08 111.53L50.91 106.63L56.57 106.63L59.4 111.53L56.57 116.43Z" fill="url(#paint38_linear_1_9)"/>
<path d="M132.43 42.4298L134.7 38.4998L132.43 34.5699L127.89 34.5699L125.62 38.4998L127.89 42.4298L132.43 42.4298ZM132.6 42.7299L127.72 42.7299L125.28 38.4998L127.72 34.2698L132.6 34.2698L135.04 38.4998L132.6 42.7299Z" fill="url(#paint39_linear_1_9)"/>
<path d="M123.67 127.98L125.22 125.29L123.67 122.6L120.57 122.6L119.02 125.29L120.57 127.98L123.67 127.98ZM123.79 128.18L120.45 128.18L118.78 125.29L120.45 122.4L123.79 122.4L125.46 125.29L123.79 128.18Z" fill="url(#paint40_linear_1_9)"/>
<path d="M72.07 68.5499L82.74 50.0699L72.07 31.5899L50.73 31.5899L40.06 50.0699L50.73 68.5499L72.07 68.5499ZM72.87 69.9399L49.93 69.9399L38.46 50.0799L49.93 30.2199L72.87 30.2199L84.34 50.0799L72.87 69.9399Z" fill="url(#paint41_linear_1_9)"/>
<path d="M83.83 55.5298L85.25 53.0699L83.83 50.6098L80.99 50.6098L79.57 53.0699L80.99 55.5298L83.83 55.5298ZM83.93 55.7198L80.87 55.7198L79.34 53.0699L80.87 50.4199L83.93 50.4199L85.46 53.0699L83.93 55.7198Z" fill="url(#paint42_linear_1_9)"/>
<path d="M257.09 17.3998L258.98 14.1198L257.09 10.8398L253.31 10.8398L251.42 14.1198L253.31 17.3998L257.09 17.3998ZM257.23 17.6398L253.16 17.6398L251.13 14.1198L253.16 10.5998L257.23 10.5998L259.26 14.1198L257.23 17.6398Z" fill="url(#paint43_linear_1_9)"/>
<path d="M318.64 29.0898L326.46 15.5499L318.64 2.00986L303 2.00986L295.18 15.5499L303 29.0898L318.64 29.0898ZM319.22 30.1099L302.41 30.1099L294 15.5499L302.41 0.989867L319.22 0.989866L327.63 15.5499L319.22 30.1099Z" fill="url(#paint44_linear_1_9)"/>
<path d="M44.02 90.3099L56.08 69.4199L44.02 48.5299L19.9 48.5299L7.83997 69.4199L19.9 90.3099L44.02 90.3099ZM44.93 91.8799L19 91.8799L6.02997 69.4199L19 46.9599L44.93 46.9599L57.9 69.4199L44.93 91.8799Z" fill="url(#paint45_linear_1_9)"/>
<path d="M88.07 23.9898L89.46 21.5898L88.07 19.1898L85.3 19.1898L83.91 21.5898L85.3 23.9898L88.07 23.9898ZM88.17 24.1699L85.19 24.1699L83.7 21.5898L85.19 19.0099L88.17 19.0099L89.66 21.5898L88.17 24.1699Z" fill="url(#paint46_linear_1_9)"/>
<path d="M37.6 98.4498L39.23 95.6299L37.6 92.8098L34.34 92.8098L32.71 95.6299L34.34 98.4498L37.6 98.4498ZM37.72 98.6599L34.22 98.6599L32.47 95.6299L34.22 92.5999L37.72 92.5999L39.47 95.6299L37.72 98.6599Z" fill="url(#paint47_linear_1_9)"/>
<path d="M226.4 70.0398L228.12 67.0598L226.4 64.0798L222.96 64.0798L221.24 67.0598L222.96 70.0398L226.4 70.0398ZM226.53 70.2698L222.83 70.2698L220.98 67.0698L222.83 63.8698L226.53 63.8698L228.38 67.0698L226.53 70.2698Z" fill="url(#paint48_linear_1_9)"/>
<path d="M175.42 27.7299L178.41 22.5499L175.42 17.3699L169.44 17.3699L166.45 22.5499L169.44 27.7299L175.42 27.7299ZM175.65 28.1199L169.22 28.1199L166.01 22.5499L169.22 16.9799L175.65 16.9799L178.86 22.5499L175.65 28.1199Z" fill="url(#paint49_linear_1_9)"/>
<path d="M10.26 80.1999L13.52 74.5599L10.26 68.9199L3.74 68.9199L0.479999 74.5599L3.74 80.1999L10.26 80.1999ZM10.5 80.6199L3.5 80.6199L-5.29782e-07 74.5599L3.5 68.4999L10.5 68.4999L14 74.5599L10.5 80.6199Z" fill="url(#paint50_linear_1_9)"/>
<path d="M22.75 14.2099L24.43 11.2899L22.75 8.36987L19.38 8.36987L17.7 11.2899L19.38 14.2099L22.75 14.2099ZM22.88 14.4299L19.26 14.4299L17.45 11.2899L19.26 8.14987L22.88 8.14987L24.69 11.2899L22.88 14.4299Z" fill="url(#paint51_linear_1_9)"/>
<path d="M185.67 93.8799L196.51 75.0999L185.67 56.3199L163.98 56.3199L153.14 75.0999L163.98 93.8799L185.67 93.8799ZM186.48 95.2899L163.16 95.2899L151.5 75.0999L163.16 54.9099L186.48 54.9099L198.14 75.0999L186.48 95.2899Z" fill="url(#paint52_linear_1_9)"/>
<path d="M367.73 15.9898L370.47 11.2498L367.73 6.50986L362.26 6.50986L359.52 11.2498L362.26 15.9898L367.73 15.9898ZM367.93 16.3499L362.05 16.3499L359.11 11.2599L362.05 6.16986L367.93 6.16986L370.87 11.2599L367.93 16.3499Z" fill="url(#paint53_linear_1_9)"/>
<path d="M138.36 115.78L145.42 103.55L138.36 91.3198L124.23 91.3198L117.17 103.55L124.23 115.78L138.36 115.78ZM138.89 116.7L123.7 116.7L116.11 103.55L123.7 90.3998L138.89 90.3998L146.48 103.55L138.89 116.7Z" fill="url(#paint54_linear_1_9)"/>
<path d="M168.65 73.7099L170.24 70.9498L168.65 68.1898L165.46 68.1898L163.87 70.9498L165.46 73.7099L168.65 73.7099ZM168.77 73.9099L165.34 73.9099L163.63 70.9398L165.34 67.9698L168.77 67.9698L170.48 70.9398L168.77 73.9099Z" fill="url(#paint55_linear_1_9)"/>
<path d="M124.77 16.3398L128.26 10.2899L124.77 4.23984L117.79 4.23984L114.3 10.2899L117.79 16.3398L124.77 16.3398ZM125.03 16.7899L117.53 16.7899L113.78 10.2899L117.53 3.78986L125.03 3.78985L128.78 10.2899L125.03 16.7899Z" fill="url(#paint56_linear_1_9)"/>
<path d="M211.15 54.1798L213 50.9799L211.15 47.7798L207.45 47.7798L205.6 50.9799L207.45 54.1798L211.15 54.1798ZM211.29 54.4199L207.31 54.4199L205.32 50.9799L207.31 47.5399L211.29 47.5399L213.28 50.9799L211.29 54.4199Z" fill="url(#paint57_linear_1_9)"/>
<path d="M329.85 37.1698L331.37 34.5398L329.85 31.9098L326.81 31.9098L325.29 34.5398L326.81 37.1698L329.85 37.1698ZM329.96 37.3698L326.69 37.3698L325.06 34.5398L326.69 31.7098L329.96 31.7098L331.59 34.5398L329.96 37.3698Z" fill="url(#paint58_linear_1_9)"/>
<path d="M170.22 130.59C170.402 130.59 170.55 130.738 170.55 130.92C170.55 131.102 170.402 131.25 170.22 131.25C170.038 131.25 169.89 131.102 169.89 130.92C169.89 130.738 170.038 130.59 170.22 130.59Z" fill="url(#paint59_linear_1_9)"/>
<path d="M140.92 130.04C140.92 129.51 140.49 129.08 139.96 129.08C139.43 129.08 139 129.51 139 130.04C139 130.57 139.43 131 139.96 131C140.49 131 140.92 130.57 140.92 130.04Z" fill="url(#paint60_linear_1_9)"/>
<path d="M43.03 12.7299C43.7259 12.7299 44.29 13.294 44.29 13.9899C44.29 14.6857 43.7259 15.2499 43.03 15.2499C42.3341 15.2499 41.77 14.6857 41.77 13.9899C41.77 13.294 42.3341 12.7299 43.03 12.7299Z" fill="url(#paint61_linear_1_9)"/>
<path d="M356.05 34.3598C356.05 34.1598 355.88 33.9898 355.68 33.9898C355.48 33.9898 355.31 34.1598 355.31 34.3598C355.31 34.5598 355.48 34.7299 355.68 34.7299C355.88 34.7299 356.05 34.5598 356.05 34.3598Z" fill="url(#paint62_linear_1_9)"/>
<path d="M260.86 64.3098C260.86 63.1198 259.9 62.1598 258.71 62.1598C257.52 62.1598 256.56 63.1198 256.56 64.3098C256.56 65.4998 257.52 66.4598 258.71 66.4598C259.9 66.4598 260.86 65.4998 260.86 64.3098Z" fill="url(#paint63_linear_1_9)"/>
<path d="M200.43 68.6298C200.723 68.6298 200.96 68.8671 200.96 69.1598C200.96 69.4525 200.723 69.6898 200.43 69.6898C200.137 69.6898 199.9 69.4525 199.9 69.1598C199.9 68.8671 200.137 68.6298 200.43 68.6298Z" fill="url(#paint64_linear_1_9)"/>
<path d="M318.51 21.1699C318.51 20.9999 318.37 20.8598 318.2 20.8598C318.03 20.8598 317.89 20.9999 317.89 21.1699C317.89 21.3399 318.03 21.4799 318.2 21.4799C318.37 21.4799 318.51 21.3399 318.51 21.1699Z" fill="url(#paint65_linear_1_9)"/>
<path d="M13.31 26.6999C13.31 25.6899 12.49 24.8799 11.49 24.8799C10.48 24.8799 9.66998 25.6999 9.66998 26.6999C9.66998 27.7099 10.49 28.5199 11.49 28.5199C12.49 28.5299 13.31 27.7099 13.31 26.6999Z" fill="url(#paint66_linear_1_9)"/>
<path d="M236.95 8.03986C236.95 7.73986 236.71 7.48984 236.4 7.48984C236.1 7.48984 235.85 7.72986 235.85 8.03986C235.85 8.33986 236.09 8.58984 236.4 8.58984C236.7 8.57984 236.95 8.33986 236.95 8.03986Z" fill="url(#paint67_linear_1_9)"/>
<path d="M319.82 7.35983C319.82 6.90983 319.46 6.54984 319.01 6.54984C318.56 6.54984 318.2 6.90983 318.2 7.35983C318.2 7.80983 318.56 8.16986 319.01 8.16986C319.46 8.16986 319.82 7.80983 319.82 7.35983Z" fill="url(#paint68_linear_1_9)"/>
<path d="M67.09 95.7499C67.09 95.5899 66.96 95.4599 66.8 95.4599C66.64 95.4599 66.51 95.5899 66.51 95.7499C66.51 95.9099 66.64 96.0399 66.8 96.0399C66.96 96.0399 67.09 95.9099 67.09 95.7499Z" fill="url(#paint69_linear_1_9)"/>
<path d="M41.76 52.0399C41.76 51.0899 40.99 50.3098 40.03 50.3098C39.07 50.3098 38.3 51.0799 38.3 52.0399C38.3 52.9899 39.07 53.7698 40.03 53.7698C40.99 53.7698 41.76 52.9899 41.76 52.0399Z" fill="url(#paint70_linear_1_9)"/>
<path d="M198.48 85.4998C198.9 85.4998 199.24 85.8401 199.24 86.2598C199.24 86.6796 198.9 87.0198 198.48 87.0198C198.06 87.0198 197.72 86.6796 197.72 86.2598C197.72 85.8401 198.06 85.4998 198.48 85.4998Z" fill="url(#paint71_linear_1_9)"/>
<path d="M68.99 8.49985C70.2381 8.49985 71.25 9.51169 71.25 10.7599C71.25 12.008 70.2381 13.0198 68.99 13.0198C67.7418 13.0198 66.73 12.008 66.73 10.7599C66.73 9.51169 67.7418 8.49985 68.99 8.49985Z" fill="url(#paint72_linear_1_9)"/>
<path d="M149.49 10.1399C149.49 9.89986 149.29 9.69986 149.05 9.69986C148.81 9.69986 148.61 9.89986 148.61 10.1399C148.61 10.3799 148.81 10.5798 149.05 10.5798C149.3 10.5798 149.49 10.3799 149.49 10.1399Z" fill="url(#paint73_linear_1_9)"/>
<path d="M5.36 12.0299C5.36 11.6399 5.04 11.3199 4.65 11.3199C4.26 11.3199 3.94 11.6399 3.94 12.0299C3.94 12.4199 4.26 12.7399 4.65 12.7399C5.05 12.7399 5.36 12.4199 5.36 12.0299Z" fill="url(#paint74_linear_1_9)"/>
<path d="M5.04999 44.7498C5.04999 44.5998 4.91999 44.4698 4.76999 44.4698C4.61999 44.4698 4.48999 44.5998 4.48999 44.7498C4.48999 44.9098 4.61999 45.0298 4.76999 45.0298C4.91999 45.0298 5.04999 44.8998 5.04999 44.7498Z" fill="url(#paint75_linear_1_9)"/>
<path d="M19.95 85.7999C20.3145 85.7999 20.61 86.0954 20.61 86.4599C20.61 86.8244 20.3145 87.1199 19.95 87.1199C19.5855 87.1199 19.29 86.8244 19.29 86.4599C19.29 86.0954 19.5855 85.7999 19.95 85.7999Z" fill="url(#paint76_linear_1_9)"/>
<path d="M300.06 66.7798C300.06 66.1298 299.53 65.5998 298.88 65.5998C298.23 65.5998 297.7 66.1298 297.7 66.7798C297.7 67.4298 298.23 67.9598 298.88 67.9598C299.53 67.9598 300.06 67.4298 300.06 66.7798Z" fill="url(#paint77_linear_1_9)"/>
<path d="M69.09 124.07C69.09 123.4 68.54 122.85 67.87 122.85C67.2 122.85 66.65 123.4 66.65 124.07C66.65 124.74 67.2 125.29 67.87 125.29C68.55 125.29 69.09 124.75 69.09 124.07Z" fill="url(#paint78_linear_1_9)"/>
<path d="M167.83 48.6899C168.001 48.6899 168.14 48.8287 168.14 48.9999C168.14 49.1711 168.001 49.3099 167.83 49.3099C167.659 49.3099 167.52 49.1711 167.52 48.9999C167.52 48.8287 167.659 48.6899 167.83 48.6899Z" fill="url(#paint79_linear_1_9)"/>
<path d="M107.58 93.5599C107.58 93.3599 107.41 93.1899 107.21 93.1899C107.01 93.1899 106.84 93.3599 106.84 93.5599C106.84 93.7599 107.01 93.9299 107.21 93.9299C107.41 93.9299 107.58 93.7699 107.58 93.5599Z" fill="url(#paint80_linear_1_9)"/>
<path d="M99.46 7.91986C100.266 7.91986 100.92 8.57352 100.92 9.37985C100.92 10.1862 100.266 10.8398 99.46 10.8398C98.6537 10.8398 98 10.1862 98 9.37985C98 8.57352 98.6537 7.91986 99.46 7.91986Z" fill="url(#paint81_linear_1_9)"/>
<path d="M386.16 8.87982C386.315 8.87982 386.44 9.00518 386.44 9.15982C386.44 9.31446 386.315 9.43982 386.16 9.43982C386.005 9.43982 385.88 9.31446 385.88 9.15982C385.88 9.00518 386.005 8.87982 386.16 8.87982Z" fill="url(#paint82_linear_1_9)"/>
<path d="M152.87 119.41C153.831 119.41 154.61 120.189 154.61 121.15C154.61 122.111 153.831 122.89 152.87 122.89C151.909 122.89 151.13 122.111 151.13 121.15C151.13 120.189 151.909 119.41 152.87 119.41Z" fill="url(#paint83_linear_1_9)"/>
<path d="M10.37 105.04C10.37 103.99 9.52001 103.14 8.47001 103.14C7.42001 103.14 6.57001 103.99 6.57001 105.04C6.57001 106.09 7.42001 106.94 8.47001 106.94C9.52001 106.94 10.37 106.09 10.37 105.04Z" fill="url(#paint84_linear_1_9)"/>
<path d="M219.51 12.1298C219.736 12.1298 219.92 12.3134 219.92 12.5398C219.92 12.7663 219.736 12.9498 219.51 12.9498C219.284 12.9498 219.1 12.7663 219.1 12.5398C219.1 12.3134 219.284 12.1298 219.51 12.1298Z" fill="url(#paint85_linear_1_9)"/>
<path d="M298.01 15.1198C298.17 15.1198 298.3 15.2497 298.3 15.4098C298.3 15.57 298.17 15.6998 298.01 15.6998C297.85 15.6998 297.72 15.57 297.72 15.4098C297.72 15.2497 297.85 15.1198 298.01 15.1198Z" fill="url(#paint86_linear_1_9)"/>
</g>
<defs>
<linearGradient id="paint0_linear_1_9" x1="78.3289" y1="-14.6313" x2="141.203" y2="123.526" gradientUnits="userSpaceOnUse">
<stop stop-color="#415DFF"/>
<stop offset="0.5438" stop-color="#6665FF"/>
<stop offset="1" stop-color="#806AFF"/>
</linearGradient>
<linearGradient id="paint1_linear_1_9" x1="-3.47021" y1="35.665" x2="59.4033" y2="173.822" gradientUnits="userSpaceOnUse">
<stop stop-color="#415DFF"/>
<stop offset="0.5438" stop-color="#6665FF"/>
<stop offset="1" stop-color="#806AFF"/>
</linearGradient>
<linearGradient id="paint2_linear_1_9" x1="51.9022" y1="10.4659" x2="114.776" y2="148.622" gradientUnits="userSpaceOnUse">
<stop stop-color="#415DFF"/>
<stop offset="0.5438" stop-color="#6665FF"/>
<stop offset="1" stop-color="#806AFF"/>
</linearGradient>
<linearGradient id="paint3_linear_1_9" x1="72.7801" y1="0.963889" x2="135.654" y2="139.121" gradientUnits="userSpaceOnUse">
<stop stop-color="#415DFF"/>
<stop offset="0.5438" stop-color="#6665FF"/>
<stop offset="1" stop-color="#806AFF"/>
</linearGradient>
<linearGradient id="paint4_linear_1_9" x1="22.419" y1="23.8827" x2="85.2928" y2="162.04" gradientUnits="userSpaceOnUse">
<stop stop-color="#415DFF"/>
<stop offset="0.5438" stop-color="#6665FF"/>
<stop offset="1" stop-color="#806AFF"/>
</linearGradient>
<linearGradient id="paint5_linear_1_9" x1="292.099" y1="-98.8465" x2="354.973" y2="39.311" gradientUnits="userSpaceOnUse">
<stop stop-color="#415DFF"/>
<stop offset="0.5438" stop-color="#6665FF"/>
<stop offset="1" stop-color="#806AFF"/>
</linearGradient>
<linearGradient id="paint6_linear_1_9" x1="49.6727" y1="11.4797" x2="112.547" y2="149.637" gradientUnits="userSpaceOnUse">
<stop stop-color="#415DFF"/>
<stop offset="0.5438" stop-color="#6665FF"/>
<stop offset="1" stop-color="#806AFF"/>
</linearGradient>
<linearGradient id="paint7_linear_1_9" x1="169.326" y1="-42.9731" x2="232.2" y2="95.1836" gradientUnits="userSpaceOnUse">
<stop stop-color="#415DFF"/>
<stop offset="0.5438" stop-color="#6665FF"/>
<stop offset="1" stop-color="#806AFF"/>
</linearGradient>
<linearGradient id="paint8_linear_1_9" x1="219.076" y1="-65.6139" x2="281.949" y2="72.5431" gradientUnits="userSpaceOnUse">
<stop stop-color="#415DFF"/>
<stop offset="0.5438" stop-color="#6665FF"/>
<stop offset="1" stop-color="#806AFF"/>
</linearGradient>
<linearGradient id="paint9_linear_1_9" x1="42.9774" y1="14.527" x2="105.851" y2="152.684" gradientUnits="userSpaceOnUse">
<stop stop-color="#415DFF"/>
<stop offset="0.5438" stop-color="#6665FF"/>
<stop offset="1" stop-color="#806AFF"/>
</linearGradient>
<linearGradient id="paint10_linear_1_9" x1="222.693" y1="-67.2598" x2="285.567" y2="70.8979" gradientUnits="userSpaceOnUse">
<stop stop-color="#415DFF"/>
<stop offset="0.5438" stop-color="#6665FF"/>
<stop offset="1" stop-color="#806AFF"/>
</linearGradient>
<linearGradient id="paint11_linear_1_9" x1="113.872" y1="-17.7366" x2="176.746" y2="120.421" gradientUnits="userSpaceOnUse">
<stop stop-color="#415DFF"/>
<stop offset="0.5438" stop-color="#6665FF"/>
<stop offset="1" stop-color="#806AFF"/>
</linearGradient>
<linearGradient id="paint12_linear_1_9" x1="209.67" y1="-66.38" x2="272.544" y2="71.7772" gradientUnits="userSpaceOnUse">
<stop stop-color="#415DFF"/>
<stop offset="0.5438" stop-color="#6665FF"/>
<stop offset="1" stop-color="#806AFF"/>
</linearGradient>
<linearGradient id="paint13_linear_1_9" x1="130.797" y1="-25.4388" x2="193.67" y2="112.718" gradientUnits="userSpaceOnUse">
<stop stop-color="#415DFF"/>
<stop offset="0.5438" stop-color="#6665FF"/>
<stop offset="1" stop-color="#806AFF"/>
</linearGradient>
<linearGradient id="paint14_linear_1_9" x1="160.14" y1="-38.7925" x2="223.014" y2="99.3643" gradientUnits="userSpaceOnUse">
<stop stop-color="#415DFF"/>
<stop offset="0.5438" stop-color="#6665FF"/>
<stop offset="1" stop-color="#806AFF"/>
</linearGradient>
<linearGradient id="paint15_linear_1_9" x1="184.9" y1="-50.061" x2="247.774" y2="88.0962" gradientUnits="userSpaceOnUse">
<stop stop-color="#415DFF"/>
<stop offset="0.5438" stop-color="#6665FF"/>
<stop offset="1" stop-color="#806AFF"/>
</linearGradient>
<linearGradient id="paint16_linear_1_9" x1="35.8863" y1="17.7541" x2="98.7602" y2="155.911" gradientUnits="userSpaceOnUse">
<stop stop-color="#415DFF"/>
<stop offset="0.5438" stop-color="#6665FF"/>
<stop offset="1" stop-color="#806AFF"/>
</linearGradient>
<linearGradient id="paint17_linear_1_9" x1="142.579" y1="-30.8007" x2="205.453" y2="107.356" gradientUnits="userSpaceOnUse">
<stop stop-color="#415DFF"/>
<stop offset="0.5438" stop-color="#6665FF"/>
<stop offset="1" stop-color="#806AFF"/>
</linearGradient>
<linearGradient id="paint18_linear_1_9" x1="104.166" y1="-13.319" x2="167.04" y2="124.838" gradientUnits="userSpaceOnUse">
<stop stop-color="#415DFF"/>
<stop offset="0.5438" stop-color="#6665FF"/>
<stop offset="1" stop-color="#806AFF"/>
</linearGradient>
<linearGradient id="paint19_linear_1_9" x1="94.2649" y1="-8.81357" x2="157.139" y2="129.343" gradientUnits="userSpaceOnUse">
<stop stop-color="#415DFF"/>
<stop offset="0.5438" stop-color="#6665FF"/>
<stop offset="1" stop-color="#806AFF"/>
</linearGradient>
<linearGradient id="paint20_linear_1_9" x1="-8.4707" y1="37.9402" x2="54.4032" y2="176.097" gradientUnits="userSpaceOnUse">
<stop stop-color="#415DFF"/>
<stop offset="0.5438" stop-color="#6665FF"/>
<stop offset="1" stop-color="#806AFF"/>
</linearGradient>
<linearGradient id="paint21_linear_1_9" x1="36.4985" y1="17.4764" x2="99.3721" y2="155.633" gradientUnits="userSpaceOnUse">
<stop stop-color="#415DFF"/>
<stop offset="0.5438" stop-color="#6665FF"/>
<stop offset="1" stop-color="#806AFF"/>
</linearGradient>
<linearGradient id="paint22_linear_1_9" x1="48.2285" y1="12.1373" x2="111.102" y2="150.294" gradientUnits="userSpaceOnUse">
<stop stop-color="#415DFF"/>
<stop offset="0.5438" stop-color="#6665FF"/>
<stop offset="1" stop-color="#806AFF"/>
</linearGradient>
<linearGradient id="paint23_linear_1_9" x1="152.337" y1="-35.2423" x2="215.212" y2="102.917" gradientUnits="userSpaceOnUse">
<stop stop-color="#415DFF"/>
<stop offset="0.5438" stop-color="#6665FF"/>
<stop offset="1" stop-color="#806AFF"/>
</linearGradient>
<linearGradient id="paint24_linear_1_9" x1="115.421" y1="-18.4414" x2="178.294" y2="119.716" gradientUnits="userSpaceOnUse">
<stop stop-color="#415DFF"/>
<stop offset="0.5438" stop-color="#6665FF"/>
<stop offset="1" stop-color="#806AFF"/>
</linearGradient>
<linearGradient id="paint25_linear_1_9" x1="175.94" y1="-45.9839" x2="238.814" y2="92.1736" gradientUnits="userSpaceOnUse">
<stop stop-color="#415DFF"/>
<stop offset="0.5438" stop-color="#6665FF"/>
<stop offset="1" stop-color="#806AFF"/>
</linearGradient>
<linearGradient id="paint26_linear_1_9" x1="6.77848" y1="31.0007" x2="69.6524" y2="169.158" gradientUnits="userSpaceOnUse">
<stop stop-color="#415DFF"/>
<stop offset="0.5438" stop-color="#6665FF"/>
<stop offset="1" stop-color="#806AFF"/>
</linearGradient>
<linearGradient id="paint27_linear_1_9" x1="156.473" y1="-37.1236" x2="219.347" y2="101.033" gradientUnits="userSpaceOnUse">
<stop stop-color="#415DFF"/>
<stop offset="0.5438" stop-color="#6665FF"/>
<stop offset="1" stop-color="#806AFF"/>
</linearGradient>
<linearGradient id="paint28_linear_1_9" x1="232.757" y1="-71.8396" x2="295.63" y2="66.3171" gradientUnits="userSpaceOnUse">
<stop stop-color="#415DFF"/>
<stop offset="0.5438" stop-color="#6665FF"/>
<stop offset="1" stop-color="#806AFF"/>
</linearGradient>
<linearGradient id="paint29_linear_1_9" x1="237.045" y1="-73.7928" x2="299.92" y2="64.3656" gradientUnits="userSpaceOnUse">
<stop stop-color="#415DFF"/>
<stop offset="0.5438" stop-color="#6665FF"/>
<stop offset="1" stop-color="#806AFF"/>
</linearGradient>
<linearGradient id="paint30_linear_1_9" x1="250.977" y1="-80.1318" x2="313.851" y2="58.0255" gradientUnits="userSpaceOnUse">
<stop stop-color="#415DFF"/>
<stop offset="0.5438" stop-color="#6665FF"/>
<stop offset="1" stop-color="#806AFF"/>
</linearGradient>
<linearGradient id="paint31_linear_1_9" x1="21.9985" y1="24.074" x2="84.8725" y2="162.231" gradientUnits="userSpaceOnUse">
<stop stop-color="#415DFF"/>
<stop offset="0.5438" stop-color="#6665FF"/>
<stop offset="1" stop-color="#806AFF"/>
</linearGradient>
<linearGradient id="paint32_linear_1_9" x1="-25.658" y1="45.762" x2="37.216" y2="183.919" gradientUnits="userSpaceOnUse">
<stop stop-color="#415DFF"/>
<stop offset="0.5438" stop-color="#6665FF"/>
<stop offset="1" stop-color="#806AFF"/>
</linearGradient>
<linearGradient id="paint33_linear_1_9" x1="60.4836" y1="6.56024" x2="123.357" y2="144.717" gradientUnits="userSpaceOnUse">
<stop stop-color="#415DFF"/>
<stop offset="0.5438" stop-color="#6665FF"/>
<stop offset="1" stop-color="#806AFF"/>
</linearGradient>
<linearGradient id="paint34_linear_1_9" x1="191.503" y1="-53.0647" x2="254.376" y2="85.0916" gradientUnits="userSpaceOnUse">
<stop stop-color="#415DFF"/>
<stop offset="0.5438" stop-color="#6665FF"/>
<stop offset="1" stop-color="#806AFF"/>
</linearGradient>
<linearGradient id="paint35_linear_1_9" x1="96.1558" y1="-9.67417" x2="159.03" y2="128.483" gradientUnits="userSpaceOnUse">
<stop stop-color="#415DFF"/>
<stop offset="0.5438" stop-color="#6665FF"/>
<stop offset="1" stop-color="#806AFF"/>
</linearGradient>
<linearGradient id="paint36_linear_1_9" x1="230.224" y1="-66.4976" x2="293.098" y2="71.6594" gradientUnits="userSpaceOnUse">
<stop stop-color="#415DFF"/>
<stop offset="0.5438" stop-color="#6665FF"/>
<stop offset="1" stop-color="#806AFF"/>
</linearGradient>
<linearGradient id="paint37_linear_1_9" x1="116.795" y1="-19.0666" x2="179.668" y2="119.09" gradientUnits="userSpaceOnUse">
<stop stop-color="#415DFF"/>
<stop offset="0.5438" stop-color="#6665FF"/>
<stop offset="1" stop-color="#806AFF"/>
</linearGradient>
<linearGradient id="paint38_linear_1_9" x1="15.3257" y1="27.1111" x2="78.1993" y2="165.268" gradientUnits="userSpaceOnUse">
<stop stop-color="#415DFF"/>
<stop offset="0.5438" stop-color="#6665FF"/>
<stop offset="1" stop-color="#806AFF"/>
</linearGradient>
<linearGradient id="paint39_linear_1_9" x1="106.159" y1="-14.2266" x2="169.033" y2="123.931" gradientUnits="userSpaceOnUse">
<stop stop-color="#415DFF"/>
<stop offset="0.5438" stop-color="#6665FF"/>
<stop offset="1" stop-color="#806AFF"/>
</linearGradient>
<linearGradient id="paint40_linear_1_9" x1="66.7811" y1="3.69531" x2="129.654" y2="141.851" gradientUnits="userSpaceOnUse">
<stop stop-color="#415DFF"/>
<stop offset="0.5438" stop-color="#6665FF"/>
<stop offset="1" stop-color="#806AFF"/>
</linearGradient>
<linearGradient id="paint41_linear_1_9" x1="44.8369" y1="13.6807" x2="107.711" y2="151.838" gradientUnits="userSpaceOnUse">
<stop stop-color="#415DFF"/>
<stop offset="0.5438" stop-color="#6665FF"/>
<stop offset="1" stop-color="#806AFF"/>
</linearGradient>
<linearGradient id="paint42_linear_1_9" x1="61.1074" y1="6.27587" x2="123.981" y2="144.434" gradientUnits="userSpaceOnUse">
<stop stop-color="#415DFF"/>
<stop offset="0.5438" stop-color="#6665FF"/>
<stop offset="1" stop-color="#806AFF"/>
</linearGradient>
<linearGradient id="paint43_linear_1_9" x1="218.941" y1="-65.5529" x2="281.815" y2="72.6049" gradientUnits="userSpaceOnUse">
<stop stop-color="#415DFF"/>
<stop offset="0.5438" stop-color="#6665FF"/>
<stop offset="1" stop-color="#806AFF"/>
</linearGradient>
<linearGradient id="paint44_linear_1_9" x1="259.919" y1="-96.2936" x2="322.793" y2="41.8634" gradientUnits="userSpaceOnUse">
<stop stop-color="#415DFF"/>
<stop offset="0.5438" stop-color="#6665FF"/>
<stop offset="1" stop-color="#806AFF"/>
</linearGradient>
<linearGradient id="paint45_linear_1_9" x1="13.1585" y1="28.0972" x2="76.0325" y2="166.254" gradientUnits="userSpaceOnUse">
<stop stop-color="#415DFF"/>
<stop offset="0.5438" stop-color="#6665FF"/>
<stop offset="1" stop-color="#806AFF"/>
</linearGradient>
<linearGradient id="paint46_linear_1_9" x1="76.5212" y1="-0.738857" x2="139.396" y2="137.419" gradientUnits="userSpaceOnUse">
<stop stop-color="#415DFF"/>
<stop offset="0.5438" stop-color="#6665FF"/>
<stop offset="1" stop-color="#806AFF"/>
</linearGradient>
<linearGradient id="paint47_linear_1_9" x1="6.59907" y1="31.0831" x2="69.4723" y2="169.239" gradientUnits="userSpaceOnUse">
<stop stop-color="#415DFF"/>
<stop offset="0.5438" stop-color="#6665FF"/>
<stop offset="1" stop-color="#806AFF"/>
</linearGradient>
<linearGradient id="paint48_linear_1_9" x1="173.696" y1="-44.9623" x2="236.57" y2="93.1959" gradientUnits="userSpaceOnUse">
<stop stop-color="#415DFF"/>
<stop offset="0.5438" stop-color="#6665FF"/>
<stop offset="1" stop-color="#806AFF"/>
</linearGradient>
<linearGradient id="paint49_linear_1_9" x1="147.196" y1="-32.9015" x2="210.069" y2="105.255" gradientUnits="userSpaceOnUse">
<stop stop-color="#415DFF"/>
<stop offset="0.5438" stop-color="#6665FF"/>
<stop offset="1" stop-color="#806AFF"/>
</linearGradient>
<linearGradient id="paint50_linear_1_9" x1="-9.4602" y1="38.3908" x2="53.4135" y2="176.547" gradientUnits="userSpaceOnUse">
<stop stop-color="#415DFF"/>
<stop offset="0.5438" stop-color="#6665FF"/>
<stop offset="1" stop-color="#806AFF"/>
</linearGradient>
<linearGradient id="paint51_linear_1_9" x1="26.0477" y1="22.2315" x2="88.9221" y2="160.39" gradientUnits="userSpaceOnUse">
<stop stop-color="#415DFF"/>
<stop offset="0.5438" stop-color="#6665FF"/>
<stop offset="1" stop-color="#806AFF"/>
</linearGradient>
<linearGradient id="paint52_linear_1_9" x1="129.369" y1="-24.7892" x2="192.243" y2="113.368" gradientUnits="userSpaceOnUse">
<stop stop-color="#415DFF"/>
<stop offset="0.5438" stop-color="#6665FF"/>
<stop offset="1" stop-color="#806AFF"/>
</linearGradient>
<linearGradient id="paint53_linear_1_9" x1="310.977" y1="-107.437" x2="373.851" y2="30.7199" gradientUnits="userSpaceOnUse">
<stop stop-color="#415DFF"/>
<stop offset="0.5438" stop-color="#6665FF"/>
<stop offset="1" stop-color="#806AFF"/>
</linearGradient>
<linearGradient id="paint54_linear_1_9" x1="82.5806" y1="-3.49638" x2="145.455" y2="134.661" gradientUnits="userSpaceOnUse">
<stop stop-color="#415DFF"/>
<stop offset="0.5438" stop-color="#6665FF"/>
<stop offset="1" stop-color="#806AFF"/>
</linearGradient>
<linearGradient id="paint55_linear_1_9" x1="124.499" y1="-22.5725" x2="187.373" y2="115.584" gradientUnits="userSpaceOnUse">
<stop stop-color="#415DFF"/>
<stop offset="0.5438" stop-color="#6665FF"/>
<stop offset="1" stop-color="#806AFF"/>
</linearGradient>
<linearGradient id="paint56_linear_1_9" x1="109.443" y1="-15.721" x2="172.317" y2="122.437" gradientUnits="userSpaceOnUse">
<stop stop-color="#415DFF"/>
<stop offset="0.5438" stop-color="#6665FF"/>
<stop offset="1" stop-color="#806AFF"/>
</linearGradient>
<linearGradient id="paint57_linear_1_9" x1="167.025" y1="-41.9256" x2="229.899" y2="96.2313" gradientUnits="userSpaceOnUse">
<stop stop-color="#415DFF"/>
<stop offset="0.5438" stop-color="#6665FF"/>
<stop offset="1" stop-color="#806AFF"/>
</linearGradient>
<linearGradient id="paint58_linear_1_9" x1="271.827" y1="-89.6196" x2="334.701" y2="48.5367" gradientUnits="userSpaceOnUse">
<stop stop-color="#415DFF"/>
<stop offset="0.5438" stop-color="#6665FF"/>
<stop offset="1" stop-color="#806AFF"/>
</linearGradient>
<linearGradient id="paint59_linear_1_9" x1="104.514" y1="-13.4706" x2="167.385" y2="124.681" gradientUnits="userSpaceOnUse">
<stop stop-color="#415DFF"/>
<stop offset="0.5438" stop-color="#6665FF"/>
<stop offset="1" stop-color="#806AFF"/>
</linearGradient>
<linearGradient id="paint60_linear_1_9" x1="79.7707" y1="-2.21799" x2="142.645" y2="135.94" gradientUnits="userSpaceOnUse">
<stop stop-color="#415DFF"/>
<stop offset="0.5438" stop-color="#6665FF"/>
<stop offset="1" stop-color="#806AFF"/>
</linearGradient>
<linearGradient id="paint61_linear_1_9" x1="43.2219" y1="14.4156" x2="106.095" y2="152.572" gradientUnits="userSpaceOnUse">
<stop stop-color="#415DFF"/>
<stop offset="0.5438" stop-color="#6665FF"/>
<stop offset="1" stop-color="#806AFF"/>
</linearGradient>
<linearGradient id="paint62_linear_1_9" x1="294.553" y1="-99.9581" x2="357.427" y2="38.1943" gradientUnits="userSpaceOnUse">
<stop stop-color="#415DFF"/>
<stop offset="0.5438" stop-color="#6665FF"/>
<stop offset="1" stop-color="#806AFF"/>
</linearGradient>
<linearGradient id="paint63_linear_1_9" x1="202.924" y1="-58.2633" x2="265.798" y2="79.8943" gradientUnits="userSpaceOnUse">
<stop stop-color="#415DFF"/>
<stop offset="0.5438" stop-color="#6665FF"/>
<stop offset="1" stop-color="#806AFF"/>
</linearGradient>
<linearGradient id="paint64_linear_1_9" x1="152.818" y1="-35.4609" x2="215.691" y2="102.697" gradientUnits="userSpaceOnUse">
<stop stop-color="#415DFF"/>
<stop offset="0.5438" stop-color="#6665FF"/>
<stop offset="1" stop-color="#806AFF"/>
</linearGradient>
<linearGradient id="paint65_linear_1_9" x1="268.474" y1="-88.0942" x2="331.351" y2="50.0614" gradientUnits="userSpaceOnUse">
<stop stop-color="#415DFF"/>
<stop offset="0.5438" stop-color="#6665FF"/>
<stop offset="1" stop-color="#806AFF"/>
</linearGradient>
<linearGradient id="paint66_linear_1_9" x1="12.3008" y1="28.4875" x2="75.1734" y2="166.642" gradientUnits="userSpaceOnUse">
<stop stop-color="#415DFF"/>
<stop offset="0.5438" stop-color="#6665FF"/>
<stop offset="1" stop-color="#806AFF"/>
</linearGradient>
<linearGradient id="paint67_linear_1_9" x1="205.664" y1="-59.5055" x2="268.535" y2="78.6436" gradientUnits="userSpaceOnUse">
<stop stop-color="#415DFF"/>
<stop offset="0.5438" stop-color="#6665FF"/>
<stop offset="1" stop-color="#806AFF"/>
</linearGradient>
<linearGradient id="paint68_linear_1_9" x1="274.353" y1="-90.7718" x2="337.229" y2="47.3873" gradientUnits="userSpaceOnUse">
<stop stop-color="#415DFF"/>
<stop offset="0.5438" stop-color="#6665FF"/>
<stop offset="1" stop-color="#806AFF"/>
</linearGradient>
<linearGradient id="paint69_linear_1_9" x1="32.086" y1="19.4777" x2="94.9631" y2="157.644" gradientUnits="userSpaceOnUse">
<stop stop-color="#415DFF"/>
<stop offset="0.5438" stop-color="#6665FF"/>
<stop offset="1" stop-color="#806AFF"/>
</linearGradient>
<linearGradient id="paint70_linear_1_9" x1="26.3974" y1="22.0725" x2="89.2708" y2="160.229" gradientUnits="userSpaceOnUse">
<stop stop-color="#415DFF"/>
<stop offset="0.5438" stop-color="#6665FF"/>
<stop offset="1" stop-color="#806AFF"/>
</linearGradient>
<linearGradient id="paint71_linear_1_9" x1="144.76" y1="-31.7896" x2="207.633" y2="106.364" gradientUnits="userSpaceOnUse">
<stop stop-color="#415DFF"/>
<stop offset="0.5438" stop-color="#6665FF"/>
<stop offset="1" stop-color="#806AFF"/>
</linearGradient>
<linearGradient id="paint72_linear_1_9" x1="65.948" y1="4.07306" x2="128.822" y2="142.23" gradientUnits="userSpaceOnUse">
<stop stop-color="#415DFF"/>
<stop offset="0.5438" stop-color="#6665FF"/>
<stop offset="1" stop-color="#806AFF"/>
</linearGradient>
<linearGradient id="paint73_linear_1_9" x1="132.506" y1="-26.215" x2="195.376" y2="111.937" gradientUnits="userSpaceOnUse">
<stop stop-color="#415DFF"/>
<stop offset="0.5438" stop-color="#6665FF"/>
<stop offset="1" stop-color="#806AFF"/>
</linearGradient>
<linearGradient id="paint74_linear_1_9" x1="12.1709" y1="28.5471" x2="75.0456" y2="166.707" gradientUnits="userSpaceOnUse">
<stop stop-color="#415DFF"/>
<stop offset="0.5438" stop-color="#6665FF"/>
<stop offset="1" stop-color="#806AFF"/>
</linearGradient>
<linearGradient id="paint75_linear_1_9" x1="-0.0678126" y1="34.116" x2="62.8071" y2="172.276" gradientUnits="userSpaceOnUse">
<stop stop-color="#415DFF"/>
<stop offset="0.5438" stop-color="#6665FF"/>
<stop offset="1" stop-color="#806AFF"/>
</linearGradient>
<linearGradient id="paint76_linear_1_9" x1="-3.22202" y1="35.5512" x2="59.6521" y2="173.71" gradientUnits="userSpaceOnUse">
<stop stop-color="#415DFF"/>
<stop offset="0.5438" stop-color="#6665FF"/>
<stop offset="1" stop-color="#806AFF"/>
</linearGradient>
<linearGradient id="paint77_linear_1_9" x1="235.269" y1="-72.982" x2="298.143" y2="65.1742" gradientUnits="userSpaceOnUse">
<stop stop-color="#415DFF"/>
<stop offset="0.5438" stop-color="#6665FF"/>
<stop offset="1" stop-color="#806AFF"/>
</linearGradient>
<linearGradient id="paint78_linear_1_9" x1="22.3014" y1="23.9377" x2="85.1744" y2="162.093" gradientUnits="userSpaceOnUse">
<stop stop-color="#415DFF"/>
<stop offset="0.5438" stop-color="#6665FF"/>
<stop offset="1" stop-color="#806AFF"/>
</linearGradient>
<linearGradient id="paint79_linear_1_9" x1="133.411" y1="-26.6301" x2="196.286" y2="111.529" gradientUnits="userSpaceOnUse">
<stop stop-color="#415DFF"/>
<stop offset="0.5438" stop-color="#6665FF"/>
<stop offset="1" stop-color="#806AFF"/>
</linearGradient>
<linearGradient id="paint80_linear_1_9" x1="66.3885" y1="3.87046" x2="129.263" y2="142.031" gradientUnits="userSpaceOnUse">
<stop stop-color="#415DFF"/>
<stop offset="0.5438" stop-color="#6665FF"/>
<stop offset="1" stop-color="#806AFF"/>
</linearGradient>
<linearGradient id="paint81_linear_1_9" x1="91.714" y1="-7.65275" x2="154.588" y2="130.505" gradientUnits="userSpaceOnUse">
<stop stop-color="#415DFF"/>
<stop offset="0.5438" stop-color="#6665FF"/>
<stop offset="1" stop-color="#806AFF"/>
</linearGradient>
<linearGradient id="paint82_linear_1_9" x1="329.303" y1="-115.779" x2="392.178" y2="22.3799" gradientUnits="userSpaceOnUse">
<stop stop-color="#415DFF"/>
<stop offset="0.5438" stop-color="#6665FF"/>
<stop offset="1" stop-color="#806AFF"/>
</linearGradient>
<linearGradient id="paint83_linear_1_9" x1="93.821" y1="-8.61129" x2="156.695" y2="129.545" gradientUnits="userSpaceOnUse">
<stop stop-color="#415DFF"/>
<stop offset="0.5438" stop-color="#6665FF"/>
<stop offset="1" stop-color="#806AFF"/>
</linearGradient>
<linearGradient id="paint84_linear_1_9" x1="-19.7338" y1="43.0671" x2="43.1394" y2="181.222" gradientUnits="userSpaceOnUse">
<stop stop-color="#415DFF"/>
<stop offset="0.5438" stop-color="#6665FF"/>
<stop offset="1" stop-color="#806AFF"/>
</linearGradient>
<linearGradient id="paint85_linear_1_9" x1="189.974" y1="-52.366" x2="252.846" y2="85.7838" gradientUnits="userSpaceOnUse">
<stop stop-color="#415DFF"/>
<stop offset="0.5438" stop-color="#6665FF"/>
<stop offset="1" stop-color="#806AFF"/>
</linearGradient>
<linearGradient id="paint86_linear_1_9" x1="253.915" y1="-81.4755" x2="316.795" y2="56.6884" gradientUnits="userSpaceOnUse">
<stop stop-color="#415DFF"/>
<stop offset="0.5438" stop-color="#6665FF"/>
<stop offset="1" stop-color="#806AFF"/>
</linearGradient>
</defs>
</svg>
